<?xml version="1.0" encoding="utf-8"?>
<svg baseProfile="tiny" fill="#ececec" height="684" stroke="black" stroke-linecap="round" stroke-linejoin="round" stroke-width=".1" version="1.2" viewBox="0 0 1000 684" width="1000" xmlns="http://www.w3.org/2000/svg">
  <defs>
    <linearGradient gradientUnits="userSpaceOnUse" x1="371.4" y1="509.3" x2="371.4" y2="630" id="gradient-0">
      <stop offset="0" style="stop-color: rgb(100% 0% 0%)"/>
      <stop offset="1" style="stop-color: rgb(64.913% 0% 0%)"/>
    </linearGradient>
  </defs>
  <path d="M654.7 528.1l0.5 0.4 2 2.9 1.4 0.5 1.9 1.3 1.4 3.2 0.1 2.2-0.5 2.6 0.3 2.1-0.8 0.8 0.7 2 0.2 1.9 1.2 2.2 1.2 1.1 1.3 2.4 1.6-0.2 1.3 1.1 0 1.1 1.1 1.8-0.8 2.6-1.7 0.8-1.2 3.1-0.3 2-0.6 0.5-1.9 0.3-1.7 1.3 1 2.2-0.9 0.7-0.3 1.5-0.7 0.7-2.7-0.9-0.7-2.5-1.7-2.7-4.9-2.6-1.2-1.1 0.4-1.5-0.1-1.4-1.4-2.4 0.3-2.6 0.8-2.2-0.3-2.7 0.1-2.1-0.7-2.9 0.5-2.1 0.9-1.3-0.2-2.2-1.5-1.1-1.6-0.2 0-3.1-0.3-0.6 1.7 0-1.7-2.8 3.2-5.3 1.1 0.3 0.8 2.1 3.4-1.2z" id="AL" name="Albania"/>
  <path d="M423.4 528.8l-2.8 1.1-0.7-0.4 0-2.1 0.9-0.7 2.6 0.6 0 1.5z" id="AD" name="Andorra"/>
  <path d="M974.6 572.4l-3.2-2.8-2.3-1.7-1.6-0.7-3.5 0.4-2.9-0.9-1.8-0.9 0.5-0.6-1.9-3-0.8-1.9 1-1.4 0.2-2.3-1.7-3.3-1.7-1.2-1.3-1.6 4.4-0.3 5.3-1.3 3.2 0.3 1.1-0.2 3.5-0.1-0.5-0.7 2.3-0.5 1.3 1.5 1.6 1-0.9 0.9 2.3 1 1.2 0 3.3 2.5 0 0.7-1.9 1.5-0.2 1.1 3.2 3.4 2.4 1.4 3.2 1.5 0.2 0.9-0.9 2.5-3 0 0.6 0.9 1.9 1.2 6.1 4.4 1.5-0.3 2.2 0.9 0.2 1.3-1 1.4 1.9 1.4 0.8 1.5-1.8 0.5 1.4 1.5 0.5 2.6-2.2-0.1-2.5 0.5-3-4.7 0.1-1-3.1-2.1 0.1-1.7-0.8-1.2-1.7 0.2-1.9 0.9-2.9-1.6-1.2 0.2-0.3-1.1-1.8-1.7-3.2 0.9z" id="AM" name="Armenia"/>
  <path d="M607.8 434.9l-0.9 2.4 0.1 0.8 1.6 2.9 2.3 2.9-0.6 0.7-0.6 1.9 0.7 2-3.9 0.3-2.5-0.9-1.3 1.4 2.6 0.7 0.5 1.1-0.5 1.4-2.2 1.2 0.4 1.5-0.5 0.7 1.1 1.6-0.3 1.8-2.5 0.5-1.8 1.7-1.3 0.9-0.1 1.9-2.4-0.5-1.6 0.2-2.3 1.1-2.8-0.2-2.6 0.2-1.9 0.7-1 1.3-3 1.2-5-0.7-5-0.9-2.6-0.5-4-0.3-8.6-1.5-1.1-0.5-3.1-3.5 0-2.3-4.7 1.5-3.1-0.2-3.4 0.3-1.4 0.6-1.2 2.2-1.1 0.4-2.1-0.4-0.9-0.8-3-0.3-0.5-1.5-0.8-0.3-2 1.9-2.3-0.4-1.5-0.8-0.4-1-3.3-0.8 0.3-0.8-1.1-2.5 1-3-0.9-0.7 1.7-0.5 0.7-0.5 3.5 1.6 0.9 1.4 1.2 0.3-0.1 1.3 1.6-0.5 1-1.6 0.2-1.9 2.8-0.1 2.7 0.4 1.4 1.9 3.8-0.5 1.1-0.9 3.9-1.5 5.7-0.5 0.1-1.4 2 0.3 1.5 0.8 2.5-0.5 1.1 0.5 0.2 1.1 1.2 0.9 1.7 0.4 0.3-1.5-0.3-1.9-1.7-0.3 0.6-1.3-0.1-1.3-2.5-2.8 0.6-1.3 3.1-1.8 2.9-0.8 1-1 0.7-2.9 2.3 0.9 1.3-0.9 0.2-2.8 2.2 1.2 0.8 1.3 3.9 0.4 1.4-0.7 2.5 0.4 0.1-1.1 1.3-1.6 1.2 0 0.3-3.2 1.2-0.2 1.6 0.8 1.4-0.4 4.8 1.7 1.5-0.1 3 1.7 3.8 0.2 1.2-0.9 5.1 1.5 1 1.6z" id="AT" name="Austria"/>
  <path d="M470 401.8l1.6-0.5 0.8 0.8 1.2 0.1 3 2.3-0.4 1.5 1.7 0.7 0.4 2-2.3 1.3-0.6 1.7-1.7-0.7-1.3 1.3-1.4 2.5-0.2 1.7 2 2.4-1.1 1.7-3.4 0.4-2.8-2.6-3.3-1.5-1.7-0.1-0.4-2-0.6-0.6 0.8-2.7-1.9 0.6-0.5 1.4-1.3 0.6-2.2 0.3-2.3-0.3-0.5-0.6 0.7-1.4-0.7-0.7 0.4-1.6-1.6-1.1-3.6-0.4-0.9 0.3-0.6-2-4.2-1.1-0.5-2-1.6-1.8-3.2 1-2.9-2.4 0-1.2-0.9-2.2 5.1-2.5 4.7-1.7 0.3 1.3 1.2 0.7 1.2-0.6 3.9 1.1 3.2-1.5 0.6-1.2 2.1 0.3-0.2-0.9 1.4-0.7 1.5 0.8 1.5-1 1.1 1.3 2.5-0.8 0.5 1.6 2.6 1.4 1.9-0.4 1.7 1.3 2.6 1.1-1 2.9-1.1 1.3 0.7 1.1z" id="BE" name="Belgium"/>
  <path d="M759.6 509.6l0.2 3.7-0.9 1.8-2-0.6-2.2 0.5-1 2-1.2 1.2 0 2.6 0.4 4.2-1.6 0.7-2.9 3.7 3 1.8 1.7 2.2 2.4 2.5 0.5 1.2-1.7-0.2-0.9 0.4-1.8 0-1.5 0.6-3.4-2.5-3.5 0.3-1.5 1.1-3.4 0.4-1 2.2-1.9 0.3-0.3 1.4-1.6-0.5-1.6 1.1 0.7 1 0.9 2.7-0.2 0.8-2.5 1.2-1.8-0.3-3.2 0.4-3.4 0.9-1.7-1.1-3.7-1.2-0.9 0.6-2.4-1.4-1.2-1.7-1.6 0.5-4.2-0.1-0.2 0.9-1.9 0.2-3 1.1-2.6-0.2-2.4 0.2-1 1-3-0.2 0-4.2 0.5-1.7-0.9-1-1.7-3.3-3.4-1.8-3.3-3.2 1-0.3 1.1-1.7-1.4-2.9 0-3.3 1.1-0.6 1.8-0.1 1.1-1.6 1.6-1.7 0.3-1.4-1.6-1-1.3-1.6-2.9-1.5-2.4-3.9-0.6-2.4 0.4-2.3 2.1-1 0.2-1.9 0.9-0.7 4.3 2.5-1.8 2 0.9 1.8 3.7-0.6 3.9 0.3 5.3 1 3.5 0.4 2.5-0.5 9.4 1.7 4.2 0.2 2.3-0.6 1.6-0.9 1.2-1.6 3.3-2.1 3.2-1.2 4.4-0.9 2.9-0.4 4.5 2.3 3.2 0.4 0.9 0.6 1.7-0.5 2.5 2.6 2.2 0.7 2.6 0.5 2 0z" id="BG" name="Bulgaria"/>
  <path d="M638.2 492.2l2.8-0.7 1.5 0.8-0.5 2.5-1.6 2.7-0.1 2.6 0.5 0.8 2.4 1.2 3.3 2.9-0.3 0.8-3.1-0.1-0.5 0.8 3.2 3.7-0.2 2.2-2.5-0.3-0.7 0.8-3.2 0.5 1.4 2.2-2.3 0.2-2 1.7-0.5 1.7 0.1 1.5-1.7 0.2-0.5 0.7 0.6 3 1.1 1.6-0.1 0.8-1.1 1-1.7-0.7-6.2-3.8-0.6-0.9-1.6 0.1-1.1-0.6 0.3-1.6-3-2.5-1.5-1.6-0.4-2.2-2.4-1.1-5-4.1-1.7-2-2.8-2.3-2.3-2.4-1.3-4-3.4-3.2-1.9-1.3-0.1-1.4 0.3-5 1.2-0.6 1.8 0.4 1.7 1.8 1.8 1 2.7-3.2 3.2 0.3 1.5-1.2 2.7 1.6 2.5 0.1 2.8 0.7 1.7-0.6 1.6 1.3 2.2-1 1.8 0.3 1.8-0.2 2.6 0.7 2.2 0.2 1.1 0.8 1.3 2.2 2.2 0.2z" id="BA" name="Bosnia and Herzegovina"/>
  <path d="M724.5 321.5l1.8 1.3 1.2-0.4 1.9-0.1 3.1 2.2 1.6-0.9 1.5-0.3 3.6 1.2 0.2 2.3 1.7 1.5 2.1-1.3 2.7-1.1 3.4 0 2.7 0.9 2.4 1.8 3.5 1.4 0.4 2.5-0.6 1.8 2.1 2.1 0.5 1.3-1.3 2 0 2 4.1 2 0.5 0.5-0.5 1.8 1.4 0.6 1.8 2.4 1.5 1.4 4.9 2.1 0.7 0.8-0.4 2.8 5.3 0.5 3.2 1.3 0 1.1 0.7 1.1 2.8 1.4 0.6 1.7-2.6 1-0.3 0.9-3 1.8-3.5-0.2-2.4-1.5-2.9 0.1-1.4 2.7 3.9 3.3 0.6 1-0.2 1.5 1 1.5 0.5 3.3 1.6 1.4 1.3 1.8-5-0.1-1.4 0.8-1.7-0.4-1.1 0.5-2.2 2.3-0.8 1.2-1 3.3 1.8 3.6-0.8 1.4-2.7-0.9-0.5-1.2-2-1.1-7.1 0.6-2.3 0.8-0.6-0.5-2.5-3-3.8 1.6-0.6 1.1-1-0.3-0.8-1.3-5.1-1-1.9 0.7-1.9-0.5-1.2 1.7-0.8-1.4-1.1-0.4-3 0.1-1-0.3-1.8-2.1-2.3 0-6.1-0.9-6.5-1.5-7.8-0.4-2.4 0.1-2.3 0.5-5.9 0.5-0.8 1.4-1.6 1.6-1.9 1.2-1.1-0.5-1.9-0.3-1.1 0.5 0.1 1.4-1-1.6-0.1-1.3 0.8-1.5-0.4-1.1 0.2-2.4-0.8-1-1.8-1-3.3-1.3 0-1.2 2-2.7 0.8-0.5 4-1.7 0.6-1.6-0.9-3.9-1.7-3.6-2.9-4.9-2.1-5.1 2.9 0.4 1.6-0.3 3.7-0.3 1.6 0.9 3.3-1.3 1.8 0.1 0.8-2.6 2 0.2 1.4-1.2 2.1-0.5 1-0.7 1.7 2.3 2-0.2 0-1-0.9-1.1-1.9-0.5 0.5-2 1-1.5-0.4-2.3 1.1-3 2.6-0.6 0.8-0.6 1-2 3.6 0.1 0.4-1.1 1.3-1-3.9-1 0.7-3.1 0-1.8 2.6-0.6 1.2-1.5 1.1-0.3 3 0.4 3.1 0.1 0.4-1.7 2.5-2.4 1.4-0.8 1.3-0.2z" id="BY" name="Belarus"/>
  <path d="M514.1 449.1l0.8 1.1 2.6 1.3 1.2 0 0.9 0.7-1 3-0.5 1.5 0.1 1.7 1.2 0.1 3.3 0.8 0.4 1 1.5 0.8 2.3 0.4 2-1.9 0.8 0.3 0.5 1.5-0.5 3.1 0.5 1.8-1.9-0.2-1-0.9-1.3 0.3-0.6 1.8 1.5 3.5-1.2 0.3-1.4-1.9-0.7-0.1-2.9 1.1-2-0.8-0.8-2.1-2 0.1 0 2.9-0.5 1.1-2.2 2.6-0.2 1 0.7 1.7-1.2 0.7-0.9-1.4-1.3-1.2 0.4-1.2-2.2-0.6-2.4-2-0.2-2.5-1-0.6-3.4 2.9 0.6 1.5-1.6 2.2-2.4 1.4-3.1-0.8-2.6 1-2.4 0.5-1.4-0.7-0.9-1.4-2.3-2.3 0.5-1.7-0.8-2.2-2.2-0.3-1.9 0.1-2.3 1.5 0.5 1.3-2.3 1.6-1.4-0.1 0-1 1.5-1 0.3-1.5-0.8-0.7 1.1-2.9 3-2.2 0.5-2.9 2.1-0.9 3.8-4 0.6-0.9-1.3-1.1 1.8-1.4 1.1 0 0.8 0.8 2.7-0.3 0.8-1.4 1.5-0.7 1 0.3 2.8 0.1 3.3-0.6 2.6 0.2-0.2-1.5 1.3-1.2 1.3 0 1.4 1 0.8-0.2 1.1 0.9 3.7-0.2z" id="CH" name="Switzerland"/>
  <path d="M578.9 400.5l2.1-0.4-0.1-1.9 3.3 0.8 0.3 1.1 1 1.1 4.6 1.1 2.7 1.1 0.8 0.9 3.2-0.7 1.8 1.2-0.7 1.1-1.6 1.2 1.6 0.9 2 1.8 1.5 1.9 1 0.4 3.5-2.5-1.7-2.4 1.3 0 2.2 0.6 3.3 1.9 3.6-0.7 0 1.6-1.4 0.5 2.7 2.3 1 0.6 1.8-1 3.5 1.8 0.5-0.2 2.7 0.8 0.5 1.8 2.8 2.2 0.5 1.6-2.8 0.3-2 1.5-0.6 0.8-2.3 1.2-0.7 3-1.6 0.8-2.1 1.9-1.5 0.7-1.7 0.2-3.6-0.5-1.4 1.2-1.1 2.8-1-1.6-5.1-1.5-1.2 0.9-3.8-0.2-3-1.7-1.5 0.1-4.8-1.7-1.4 0.4-1.6-0.8-1.2 0.2-0.3 3.2-1.2 0-1.3 1.6-0.1 1.1-2.5-0.4-1.4 0.7-3.9-0.4-0.8-1.3-2.2-1.2-0.6-0.7-2.9-2.2-1.3 0-1.3-1.6-2.5-1.5-2.9-2.6-1.3 0-2.3-2-1.8-2.7-1.4-1.5 1.2-1.7-0.6-1.6-2.3-1.3-2.5-3.4 0.5-0.7 1.9 2 1.9-2.6 1.1-0.6 2.6-0.6 2.1 0.4 0.8-1.3 2-0.3 0.6-1 1.6-0.7 1.1 0.1 0.6-1.2 4.4-1 3.5-1.5 1.9-0.6-1.5-1.5 0.8-0.6 2.2 0.4 1.5 1.5 0 0.9 1.4 0.6 0.9-0.7z" id="CZ" name="Czech Republic"/>
  <path d="M567.9 355.2l-3.4-0.1-0.2-1.7-1.1-1-0.1-1 4.7 2.6 0.1 1.2z m-34.8-8.1l-1.8 0-1.4-0.7 0.8-1 1.7 0.4 0.7 1.3z m28.3 0.5l-1.3 0.7-1.3 0-1.3 1.3-2.1-1.1-0.5-1.1 0.1-2.2 0.6-1.4 2-0.9 0.9 1.2 1.7 0.6-0.5 1.7 1.7 1.2z m-46.6-6.6l1.8 0.7 1.6 1.6 0.1 1.4-1.7 1.6 3.2-0.3 0.8 1.2 1.7-0.4 4.5 1.8 3.2-0.9 0.7 1.4-0.6 1.5-2.2 1.6 1.4 1.2 2.1-0.2 3.6 0.9 3.3-2.5 1.1-0.5 3.6-0.3 5.1-4.5 5.3 0.9 1.5 1.9 3.7 2.1 3.2-0.2 1.3 2 0.8 2.5 1.9 1.3 2.8 0.5 0.7 2.6 1.8 4.1-0.3 2.7-1.9 1.8-0.7 1.6 1.6 1.4 3.3 2.1 1.4 1.7-0.6 2.6 2 2.3 0.8 1.9-0.7 2.6-0.8 1.1 1.9 3.1 0 1.6 2.2 0.9 1.6 3.2-0.4 2.3-1.6 3.6-0.9 0.7-1.4-0.6 0-0.9-1.5-1.5-2.2-0.4-0.8 0.6 1.5 1.5-1.9 0.6-3.5 1.5-4.4 1-0.6 1.2-1.1-0.1-1.6 0.7-0.6 1-2 0.3-0.8 1.3-2.1-0.4-2.6 0.6-1.1 0.6-1.9 2.6-1.9-2-0.5 0.7 2.5 3.4 2.3 1.3 0.6 1.6-1.2 1.7 1.4 1.5 1.8 2.7 2.3 2 1.3 0 2.9 2.6 2.5 1.5 1.3 1.6 1.3 0 2.9 2.2 0.6 0.7-0.2 2.8-1.3 0.9-2.3-0.9-0.7 2.9-1 1-2.9 0.8-3.1 1.8-0.6 1.3 2.5 2.8 0.1 1.3-0.6 1.3 1.7 0.3 0.3 1.9-0.3 1.5-1.7-0.4-1.2-0.9-0.2-1.1-1.1-0.5-2.5 0.5-1.5-0.8-2-0.3-0.1 1.4-5.7 0.5-3.9 1.5-1.1 0.9-3.8 0.5-1.4-1.9-2.7-0.4-2.8 0.1-0.2 1.9-1 1.6-1.6 0.5 0.1-1.3-1.2-0.3-0.9-1.4-3.5-1.6-0.7 0.5-2.2-1.2-5.1-2.3 1 1.6-3.7 0.2-1.1-0.9-0.8 0.2-1.4-1-1.3 0-1.3 1.2 0.2 1.5-2.6-0.2-3.3 0.6-2.8-0.1-1-0.3-1.1-1.3 0-1.5 0.6-2-0.2-2.4 0.3-1.5 1-1.8 1.4-5.5 3.5-3.8-0.1-1.3-1.6-0.6-4.8-0.8-2-1.4-3 0.6-2.1-0.1-0.3-0.9-1.4-0.4-1.8 0.7-3.5-4.3-1.4-0.1 0.6-3 0.9-0.9 0-1.4-2.8-1.1-1.5-1.6-0.3-2.2 0.6-1.7 2.3-1.3-0.4-2-1.7-0.7 0.4-1.5-3-2.3 0.6-2.4-1.9-1.2 0.5-0.8 2.2-1.6-0.7-1.2 1.3-2.8 0-1.2-3.1-4.1 0.7-1.1 1.8-0.7 2.3 0.8 4.5-1.3 0.7-1-1-0.9 0.3-0.9 2.6-1.6 0.6-2.6-0.8-1-2.6-0.3-0.7-1 0.6-1.6 3.1 0.1 1.1-3.8 0.7-1.7-0.1-4.3-1.7-1.4 0.5-2.7 1.1-1.4 0.9-0.4 4-0.3 4.5 0.1 1.9 2.2-0.6 1.2 1.6 0.3 0.9-2.4 1.4 0.8 1.1-0.1-0.5-1.7 0.2-1.6 0.9-1.4 3.3 0.6 3.6-0.3 0.1-0.6-2.8-0.5-0.9-1.1-0.2-3.9-1.5-0.8-1.6 0.3 0-1.5 3.4-1.1 0-1-3.4-3.8-0.2-1.6 2.7 0.1 5.2 1.3 3.1-0.7 1.5 0.4z" id="DE" name="Germany"/>
  <path d="M533.5 340l2.1 1 2.4 0.3 0.4 1.9-3.5 0.7-5.1-2.1 0.1-2.5 2.3-0.2 1.3 0.9z m13.7-1.1l-2.3 0.1-1.9 1-0.3-1.2 1.6-1 1.2 0.2 1.7 0.9z m-28.8 1.2l-1.2 0.2-1.7-0.5-0.6-2.3 2.7 1.1 0.8 1.5z m8 2l-1.4-1.5 2.5-2.9 0.7-0.2-1.8 4.6z m50.1-4l-2.4-0.2-2.4-1 0.1-2 0.5-0.9 4.5 2.3-0.3 1.8z m-52.1-8.7l2.3 4.3-0.1 2.8-1.8 1.2-2.1 0-5.4-1.7-1.7-2.9-0.1-2.3 4.8-1.4 2.6 0.8 1.5-0.8z m23.3 0.2l-1 0.6-0.7-0.9 0.9-0.9 0.8 1.2z m-23.9-2.8l-0.9 0 0-3 1.5 1.6-0.6 1.4z m22.6 0l0.1 1.5-0.7 0.7-2 0.7-1.1 1.8 2 1.2 0.5 1.5-1 0.7-2.6 0.7 0 5.6-2.2 0.6-1.5-2.1-0.1-0.9-1.3-3.1-2-0.4-2.2 0.1-1.5-1.8 0.1-2.1-1-2-1.3-0.6 0.4-1.4 3.1-0.2 1.5-1.9 0-0.9 1.8-0.2 0.8 0.7 0.1 2.6 1.6 0.5 1.1-2.9-0.9-1.1 3.9-2.2 1.1-0.1 3 0.9-0.4 2.1 0.7 2z m-31.6 14.2l-1.5-0.4-3.1 0.7-5.2-1.3-2.7-0.1-0.5-2.1-0.8-1.4 1.1-0.3-0.9-3.9-3.2-1.3-2.5-1.4 0.5-5.6-1-2.3 0.1-6.9 1.3-0.1 3.1 0.8 1.5 0.9 0.6-1.9 1.6-1.6 2-0.8 1.6 1.3 0.3-4.5-1.6-0.5-1.3 0.4-1.3 1.9-1 2.4-1.9 0.2-1.5 0.7-2.4-1.4 0.1-1.4 1.6-1.9 2-1.9 2.2 0 1.6-0.6 3.9 0.1 2.8-1.3 2.8-3.6 1.5-1.5 3.3-0.5 3-1.7-0.8 2.5 1.2 1.7 0 3-0.9 1-1.4 2.5 0.2 5.6 2.5 1.5 4.1 0 1 1.1-0.7 2.2-2.6 1.4-0.9 0-1.4-1.1-1.1 0.9-1.2 5.1-2-0.1-1.2 0.5 1.4 1.2-1.3 0.8-3.4 3.1 1.1 3.4-0.2 0.9-1.5 1.3-0.6 1.1 2.3 0.3 1.3 2.9z" id="DK" name="Denmark"/>
  <path d="M655.5 285.3l3.9 0.2 4 1.8-1.8 0.7-3.7 2.5-0.3 0.5-2.6-0.1-1.4 0.2-1 0.9-0.9 2.8-1.6 0.5-0.3-0.9 1.6-1.8-1.5-1.4-1.9-0.7 0.9-1.8-1.6-1.6 1.5-0.2 1 0.5 2-0.5 0.5-1 3.2-0.6z m8.3 1l-0.9 0.2-2.4-1.1 1-1 1.9 0.5 0.4 1.4z m-5.4-4l-0.8 0.7-0.9-0.6-0.9 1.6-1.3 0.3-1.9-2.5-2.9-0.5-1.3-0.7 4.5-0.4 1.2-1.6 1.3 0.1 0.4 0.9 2.1 0.3 0.9 1-0.4 1.4z m53.2 18.9l-1.9-0.2-3.4-1-4 1.2-2.8-1.1-3.5-2.7-0.6-0.7-2.3-0.5-5.6-2.5-1.1 0.7-1.5-1-8.4 2.8 1-3.4 0.1-3.6-2.3-0.4-0.9 1.3-1.3 0.3-4.1-1.3-1.2-2.1-1.6-1.1-0.8-1.2 0-1.8-1.5-2 0.7-1.1-0.7-2.8 3-1.2 3.3-0.2 0.9-1.3 2-1.3 2.3 0.2 3.1-1 6.3 0.1 0.4-1.7 3.2 0 7.6 1.2 1.8 0 2.8 1.2 1.4 0.3 4 0 6.3 0.5 1.2-1 1.5 1.2-1 1.4-1.2 0.4-0.9 3.2-0.8 1-1.7-0.3-2.5 0.2-2 0.5-1.3 1.1 0.1 1.1 2.6 2.3 1.4 2.8 2.6 2.2 0.8 1.3 2.4 2.9 1.8 2.5-2.3 0.6-1.2 2-0.2 2z" id="EE" name="Estonia"/>
  <path d="M646.5 260l2 0.2-0.6 2.8-2.3-1.8 0.9-1.2z m-1.9 0.5l-2.1-0.6 0.9-0.8 1.2 1.4z m-6.5-2.7l-1.5 0.7-0.3-1.7 1.8 1z m25.5-62.9l-1.5 0.5-1.3-0.3-0.2-0.9 2-0.6 1 1.3z m30.1-54.6l-3.7 1.3 1.6 0.8 0.8 1.2-2 3.2 0.1 0.6 3.1 4 7.2 1.7 2.3 1.8 3.6 2.3 1.8 0.9 0.1 1.9-3 3-2.6 3.1-1.2 1.7 0.4 1.7 2.6 2.1 2.3 2.2 3 3.5 3 2.5 3 4.2 0.4 1.4-3.7 0.7 1.2 0.9-0.6 1.3 0.3 1.9-0.5 1.5 1.9 0.3 0.3 1.3-1.7 1 0 0.9 1.4 1.7 1 0.6 3.2 0.6 0.9 1.6-1 1.7 1.8 2.2 4.5 1.8 0.7 1.3 0.2 1.7-2.4 3-2 0.8 0.7 0.8 4.5 2.6 6.6 2.9 2.6 1.3 2.1 1.9 2.2 1.6 0.5 1-1.6 4.5-0.7 1.2-2.2 2.2-3.4 2.8-2.3 2.3-5.3 5.9-1.9 1.5-2.1 2.2-4.9 3.3-0.7 0.8-2.5 1.5-5.6 5.2-3.5 1-2.6-1.1-1.8 0.2-1.2 0.8-2.5 0.2-2 0.6-1-0.7-0.7 0.6-1.9 0.2-2-1 0.3 1.5-3.3 1.5-0.8-0.9-2 1-2.1 0.2-1.1 0.8-5.9 1.1-1.5 1.3-1.2-0.3-6.7 1.1-2.9-0.2-2.7 2-1.8 0.4 1.5-3-2.4-1.1-1.2-1.6-0.7 0.4-0.3 1.5-1.5 0.8-2-0.1-0.4-2.4 0.8-2.3-3.6-0.6-3.8-1.4-0.9-0.1-0.7-1.3-2 0.9-2.1-0.9-1.7-5.3 0-1.3 0.9-1.6-0.1-3.4-0.6-2 1.1-0.6-0.9-1.6-2.2-3-1.6-1.1 0.5-3.3-0.6-1.6-1.9-1.1-1.1-2.9 0.6-2.4 2.4-2.2 0-1.2 0.9-1.1-0.5-1.3 2.7-0.5 1 0.4 2.4-0.4 1.9-1-1.1-1.8 1.5-0.7 1.2-1.2-0.1-1 2.3-0.5 2.4-1.9 2.3-1.1 2.3-1.9 1.1-0.1 0.3-1.3 2.5-1.9 0.8-1.6 2.3-1.8 2.2-3.9 3.8-1.2 3.8 0.3-0.6-1.7 1-0.3-0.6-1.3-1-0.6 0-4.6-1.3-0.9-4.5-1.6-1.7-0.1-1.2-1.2-4.6-0.7-1.6-2.5-1.9-2.2-1.8-0.6-1.3-2.6 0-1.3 1.5-1.3-0.1-1.8 0.7-1.4-0.6-0.9-3.3-2.6-0.8-1.6 0.1-1.1 1-0.8-0.6-1.3-2.8-0.4 0.3-1.9-0.7-1.4-0.4-2.4 1.1-1-1.8-0.9-1.9-1.5-1.4-0.1-1.2-1.6-3.5-1.8-8.3-1.7-4.2-1.8-4.8-2.3-2.9-1.1-0.4-0.9-2.9-0.8 0.5-0.4 2.1 0 1.9 0.4 0.5-0.6-1-1.4 1.9-1.1 3.6 0 7.9 5.5 1.4 1.8 6.9 0.6 0.8 0.5 1.8-0.1 3.7-0.9 1.2-1.2 1.5 0.1 3.6 1.1 3.9 0.8 2.6 0.8 1.3-0.6 0.5-1.7 1.6-1.3 2.1-0.3 1.5-1.4-0.7-3.2 0.6-1.7 0.7-3.8 2.6-1.7 1.7-1.8 2.1-0.2 3.8 0.4 0.9-0.2 3.5-1.6 2.9-0.3 1.8 1.2 4.2 2 4.2 1.1 3.6 0.8 2.6 2.7-0.7 1-3.2 2.9 0 0.7 1.7 1.3z" id="FI" name="Finland"/>
  <path d="M389.1 403.1l-1.6 1.3-1.3 0.2-2.5-1.2 0-0.5 2.5-1.1 2 0.6 0.9 0.7z m-36.5-39.7l1.3 0.9-3.4 1.9-1.2-0.6-0.9-1.2-0.1-1.9 1.2-0.5 1.8 0 1.3 1.4z m-23.3-11.4l-2.1 0.4-2.9 0 0.1-1.5-1.4-0.5-1.8-2.7-1.3-0.5-1.9 1.6 0.5 0.9-2.4 1.8-2.9-0.3-0.8-0.7-2.1-0.4-0.2-1-2.7-2 1-1.4 2.9-0.9-1-1.4 0.2-0.8 1.6 0.1 2.2-0.8 1.2-1.6 1-2.3 1.9-0.9 1.3 0.6 1.9-2 2.8-0.1 2.7-0.7 3.9 0.3 1.1 1.1 0.5 1.7 1.3 1.7 1.7 1.4 0 0.9-2 1.1 3.5 0.3 1.2 2.5-2.1 0.3-0.1 1.4 1.1 0.2-0.6 1.4-2.6 0.6-1.4 2.2-1 0.5-2.3-0.5z m13.7-20.2l-2.6-0.5-0.6-2 0.9-1.4 1.8 0.7 0.6 1.3-0.1 1.9z m-11.5-7.1l0.7 3.4-2.4 1.3-0.8-2.4-1.4 1 0.2-1.9 1.5-0.3 2.2-1.1z m1.7 1.7l-1.1-1.2 1.6-2.2 1.7-1-0.1 1.6-2.1 2.8z m2.5-7.8l-4.6 0.8 0.6-3-1.9-0.9 0.3-0.9 2.1-0.5 1.7 1.7 2.1 0.6-0.3 2.2z m-16.2-11.4l-1.5-0.2-0.4-1.4 0.2-2.3 1.6 0.2 0.1 3.7z m12.8-5.7l-0.1 2.8 2.9 0.8 2-0.1 0.4 0.6-3.3 2.7-0.7-0.1-0.2-2.2-1.4 0.3-1.9-0.3-1.2-1.9-2.7-0.5-0.9-1.1 1.4-0.6 0.3-1.2 2.8-0.6 1.5-0.7 0.9 1 0.2 1.1z m-11.9-2.6l1.2 0.9-1.1 1.3-1.5 0-2.2-1 0.2-0.5 3.4-0.7z m11.8-9.9l-1.6 2.6-1 0.7-0.2 1.7-3 1.6-3.2 2.4-1.4-1 2.6-1.7-2.1-1-0.2-2.6 0.8-0.7 1.4 0.7 1.9-0.3-0.7-1.2 6.3-3.2 0.4 2z m34.8-2.2l0 1.2-1.3 1.6-2.2 1.2-4.2 2.8-2.5 1.3-0.5 1.6 1.4 0.1 0.2 0.8-2.2 1.6-0.6 1.5 3-0.4 5.3-1.5 3.6 0.5 2.6-0.3 6.9 0.2 1.9-0.3 2.3 1.3 1 1.7-2.8 3.4-0.8 2.3-2 3.5-1.9 2-2 2.5-2.1 1.1-3.1 0.5 4.5 1.9-1.4 1.8-2.4 0.1-2.3 1.7-2.1 0.7 3.6 1.1 2.4-1 2.7-0.1 5.2 1.9 3.6 3.4 2 1.5 0.5 1.1 2.1 6.9 1.5 3.8 1.6 1.8 4.5 1.6 1.1 0.6 3.4 3.3 3.4 2.4-1.4 1.5 0.4 1.2 2.1 2.9 0.3 1.6-1.3-0.1-2.3-1.4-0.3 0.7 5 3.3 1.6 2 1 2.7-0.6 1.1-3 2.7 2.8 1.4 1.2-0.2 2-2.1 1.7-0.2 4.2 0.3 3.8 1 3.3 2.1 0.7 1.1 0.4 3.1-2.2 5.8-2.8 1.9-0.5 1.7-2.1 0.9-1.7-0.3-2.4 1.2 1.7 0.6 0 1.7-1.1 0.6-2.5 0.2 1.1 2 2.5 0.4 4.3-0.2 1.9 0.2-0.2 2.7-0.4 0.4-3.8 1.7-1 1.8-2.2-0.1-1.1 0.7-5.7 1.9-4.9-0.8-2.9 0.1-4 0.6-4.2-1.2-1.8-0.2-2.8 1.7-4.2 0.5-2-0.2 0.9 1.5-0.9 0.4-3.8-0.5-1 0.5-1.4-0.2-2.7-1.4-2.6-0.1-4.9 1.2-1 1.3-1.3 3.5-1.1 1.2-1.4 0.2-4.5-2.5-1.5 0.5-2.5 0.3-2.7 0.7-3.9 2.4-0.9 1.5-1.3 0.2-1.1-0.9-1.4-0.3-2.3 0.8-0.3-1.3 1-1 2.8-0.7 2.5-1.9 2.2-2.3 4.6-3.8 0.8-3.1 2.7-0.7 1.4-2.5 4.1-0.6 2.8 0 2.8 0.5 2.9-0.1 1.1-0.7 1.9-2.4 3.6-3-4.7 1-3.8 2.3-3.2-0.4-2.3-1.9-2.1-0.8-2.1 0.4-0.7-0.9-2.4-1.7-2.6 0-3.6 1.7-2.6-1.2-0.9-2.3 0.3-1.4 1.1-0.7 2.5-0.6 3.8-1.7 2.2-0.7 2.8-1.9 1.2-2.3-0.3-2 0.5-1.4-0.9-1.7 0.3-1.5-3 0.3-2.7 1.2-0.7-1.1 2.8-1.8 1-1.4 2.6-1.7 3.6-1.3 1.9 0.1 3.7-0.7 2.7 1.3-0.8-2.1 1.2-0.4 0.1-2.4 1.6-2.2-1.2-0.6 0.1-2 1.5-0.8 0.7-2.6-1.7-0.5-2.1 0.6-1.7-1.5-2.8-3.6-0.3-1.4 1.6-3.1 2.3-2-1.9-0.8-1.4 0.2-2.7 1.2-2 1.3-2.1 0-0.8-0.9-1.1 0.1-2.5 1.1-3.5-1.3-1.1 2.3-2.6-2.5-0.3-1.9 1.3 0 1.2-2.4 2.9-4 0.6-1.2-0.5-1.4-1.9-1.5 0.3-2.6 0.8-1 1.5-0.4-1.9-1.2-2.9 0.9-1.8 0.9 0.3-2-0.6-0.4-1.5 1.4 0.1 3.3-2.1 5.7-1.1 0.9-1.4-0.5 1.1-3.9 1.4-2.5-0.6-0.3 0.3-3.6 1-2.9 1.7-3.8 2.2-3.5-4.1 2.7-1 0.5-2.4-0.4-0.8-0.7-1-2.3 1.8-0.2 1.7-1.1-1.5-0.7 1.5-0.9 1.7-2.1 0.4-1.9-1-1.5-1.6-0.6-0.2-0.9 1.7-1.9-0.7-1.5 1.6-3.1 3 0.1 1.9-0.4-2.3-2 0.7-2.9 3.7-0.3-0.8-1.8 0.3-2 1.6-0.9 1.3 0.2 1 0.9 2.6-0.9 0.6 0.8 2.8-0.6 3.7-0.3 4.5-0.6 2.2-0.4 2.3 0.2-0.6 1.7z m-0.6-4l-1.3 0.1-1.3-1.4 1.5-0.3 1.1 1.6z m1.3-3.4l2.7 0.6-0.6 1.4-1.4-0.7-2 0.3-1.9-1 0.4-2.1 1.7-0.1 1.2 0.5-0.1 1.1z m3.7-2.3l-1 0.3-0.4-1.2-1.7-0.6 0.4-0.8 2.7 2.3z m16.1-19.5l1.6 1.8 1 0.5-1.3 3.8-0.2 1.6-1 1.7-0.8-0.4 0.9-2.9-0.5-1.1-1.7 0.3-0.4-0.9 1.6-1.4-0.8-2-1.1-0.2 1.5-1.6 1.2 0.8z m2.9 0.4l-1.4-1.3 1.3-0.6 0.1 1.9z" id="GB" name="United Kingdom"/>
  <path d="M972.9 547.7l-2.3 0.5 0.5 0.7-3.5 0.1-1.1 0.2-3.2-0.3-5.3 1.3-4.4 0.3-1.3-1.2-1.9-0.2-1.1-1.7-3.5-2.5-1.2-0.4-0.6-1.1-1.4-0.3-1.4 0.4-0.9 1.9-3.4-0.8-3.6-0.1-1.1 1-4.3-1.3 1.9-3 0.4-1.7-0.4-2.4-1.7-2.7-3.7-8-1.1-1.2-4-1.4-1.1-1.6-3.2-2.1-4.1-0.9-4.8-2.9-2.9-1.7 0.9-2.1 0.8-0.2 4.8 0.9 1.5-0.4 5.9 2.5 3.6 0.7 3.1 1.7 6 0.5 2.8-0.6 1.8 0 2 1.1 2.4-0.2 3.2 1.2 1.5 1.6 3.5 1.4 2.8 0.8 3.2 1.5 0.2 2.4 2.5 0.4 4.3-2.1 2.1-0.7 1.8 0.2 1.9 1.9 0.8-2.2 4.6 1.7 2.1 1.8 2.8-0.1 2.2 1-0.2 4.2 2.9 1.4 1.6 1.2 3.4 0.7 3.1 1.5-1.2 2.1-1.2 0.3 0 1.3 1.1 0.8 0.9 1.5 4.5 2.6 0.9 0.8-0.2 2-1.8 1.4-4.1-2-1.7 0.5-3.2-0.9-1.4-1 0.1-0.7-4-1.4-1.9-0.4-3 2.5z" id="GE" name="Georgia"/>
  <path d="M712.9 637.7l2.3 0 1.7-1 2.2 3.7 1.7-0.1 3.5-0.9 3.7 0.2 1.4 1 2.6 0.2 2.3 0.5 3.3-0.7 0.4 0.4 0.1 2.8 1.2 0.2 0.7-0.7 1.7-0.6 1.8 0 1.6-0.8-0.4 3.5-0.9 0.4-4.4-0.1-8.1 1-5.3 0.4-0.7-0.2-0.7-2.2-3.3-1.1-6.2-1-1.5-0.4-3.1 0.2-1.1-1-0.4-1.8 0.2-1.9 1.4 0.3 0.4-1.4 1.9 1.1z m43.4 1.1l-1.6-2.1 1.1-0.5 1.2 2.4-0.7 0.2z m-54.7-11.4l-1.4 0.2-0.7-2.2 0.5-1 2.1 2.1-0.5 0.9z m62.7 4.1l-1.7-0.4 0.4-1.8-0.7-1.6 2.3-2.7 3.2-1.3 0.9 0.9-0.9 2.5-0.9 1.3 0.4 1-1.6 0.2-1.4 1.9z m-19-10.3l-1.5 1.2-0.9-0.6 1.9-1.2 0.5 0.6z m6.2-2.2l0-0.7 1.3-1.1 2.5-1 1.2 0.6-2.5 1.4-1.5 0.1-1 0.7z m-22.2-5.4l-0.9 1.3-1.3-0.7 0.4-1.2 1.1-0.6 0.7 1.2z m3.6 1.6l-1.1 0.6-1.4-2.2 1.9-2 0.9 0.7 0.1 1.8-0.4 1.1z m5.4-8.8l0.6-1.6 1.6-0.1 0 1.1-2.2 0.6z m-21.7-0.7l-1-0.4 0.4-1.2 1.1 0.5-0.5 1.1z m31.6-3.7l2.8 0.7-0.7 1-1.6 0.9-1.7-0.9-1.2-1.2 2.4-0.5z m-76.7 0.1l0.4 1.2-1.1 1-1.6-1.2-1.2-1.8 0.9-1.1 0.9 1.2 1.7 0.7z m53.1 0.7l-1.4-0.1-2.4-2.1 0.9-1.4 0.9 1.2 1.3 0.1 0.7 2.3z m-57.3-9.7l0.3 1.8 0.9 0.3 1.3 1.6-0.2 1.2-2.1-0.8-1 0.2-1.1-2-1.3 0.2 0.6-1.8 1.4 0.1 1.2-0.8z m70.8 2.5l-1.1 0.9-1.8-1.7 1.4-1.3-2.1-2.4-0.1-1 2.1-0.5 1.3 0.9 0.6 1.2 0.4 2.6-0.7 1.3z m-70.2-6.1l-1.3 0.1-0.4-0.9 0.8-2.4 1.1 0.3 0.2 2.5-0.4 0.4z m34.6-5.4l0.9 1.7 5.5 2.5 2.8 0.3 1.7 2.6-0.2 0.6 1.5 3.8 1.1 0.9 2.7 0.3 0.4 1.9-0.9 0.8-1.9-0.7-2.1-1.6-0.4-1.3-2.2-2.9-3.6-0.2-1.5-0.7-0.6-1.7-1.5-0.9-2-1.9-1.5-1.1-3-1.1-0.6-0.7 1.9-1.3 2.1-0.5 1.4 1.2z m37.9-5.8l-0.1 0.9 1.9 1.5 0.7 1-1.2 2.1-4-0.8-0.8-0.8 1.6-1.3-0.9-0.5-1.2 1.5-2.2-0.7-0.9-0.9 0.7-1.4 1.5 0.1 1.7-0.8 0-0.6 2.3-0.2 0.9 0.9z m-81.3-1.6l-1.3 0.3-1.2-0.8-1.2-1.9-2.2-2.2 0.7-1.1 1.6-0.4 1.4 1.2-1.1 1.2 0.8 0.7 0.9 2.4 1.6 0.6z m67.8-8.6l-0.7 1.4-0.1 1.3-3.8-0.7-0.3-2.3 2.2-0.1 0.8 0.8 1-0.9 0.9 0.5z m2.4-6.9l-1.4 0.4-1.7-1.3 1.4-0.5 1.7 1.4z m-11.9-3l-1.6 0.6-1.8-1.1 1.1-2.3 1.3 0.1 1 1.3 0 1.4z m15.9-1.7l-0.5-0.7-2.1-1.2-4.6-0.6-2.3-0.9-0.9 0.2-2-1-1.2 0.4-2.5 1.7-1.5-0.2-1.6-1-2.2 0.4-1.7 1.9-1.8 1-1.8-0.4-2.3 0-0.2 1.1 2 2.1-0.5 1 0.5 1 2.1 0.1 2.5 1.3-0.7 0.7-3.2-1.2-1.2-0.1-1.2 1.2 3.5 2.7 0.5 1.4-0.6 0.9-1.5-0.8-2.5-3.2-3.1-0.6-0.4 0.6 1.2 2.4 2.9 1.7-0.6 0.6-3-1-1.1-1.6-0.4-2-5.5-2.8-1.4-2.8-2.2 1.3 0.4 2-0.6 3.8 0.4 1.3 3.5 3.7 1.3 2.7 2.6 2.1 2.6 3.2 0.7 1.8-1.3 1.1-1.3-0.5 0.3-1.9-2.2-1.2-1.9 1.2 1.5 2.3 0.5 1.2-0.4 1.3-1.6 0.8-2.6 0.1 2.4 1.4 3.3 1 1.6 1.1 1.5 0.1 1.7 2.1 2.6 0.6 1.7 2.1 2 0.5 1.7 0.8 1 2.1 0.3 2.9 0.6 2.1 0.1 1.7-1.1 0.5-1.3-1.6-4.2-3.6-1-0.4-1 0.7-2.9 0.5-1.9 1.3 1.5 1.3 0.1 1.2 0.8 1.5 2 0.4 2 2.4-3 1-1.1 0.7-0.8-0.5-0.2-1.2-4.3-2.2-0.6 0.6 0.7 2.4 1.3 1.6 2.2 4.3 1.3 3.7-0.2 2.1 1 1.5 0.1 1.5-1.7-1.2-2.2-2.5-0.8-1.5-2.2 0.1-1.3 3.3 0.2 1.9-1.6-1.1-0.2-2.9-2.1-2.8-0.9-0.4-1.3-1.9-1.5 0.6-0.1 2.9-0.4 1-2.2-1.9-2.3-3.5-0.2-1.8 1.4-1.7-0.3-1.2-1.6-2.5-2.1-1.5-1.2-0.5-0.7-1.6-2-1.3 0-1 2-1.7 1-2.6 1.9 0.5 1.4-0.2 2-2.4 1.6 0.1 3.9 2.1 4.2 1.2 2.1 1 1.2 1.1 1.6 0.3-0.5-1.4 0.8-0.4 2.1 0 0.2-1.6-2-0.6-0.8 0.2-2.4-1.4-2.3-0.8-2.2-1.5-1.2 1.3-1.2 0-3.4-0.9-2.1 0.7-4.2 0.7-1.1-1.3-2.6 1-1-0.7-1.9-4.2-1.7-1.9-1.2-0.5-0.2-1.9 1.5-0.2 2.4 0.9 0.9-0.6-0.6-1.6-2.5-0.2-1.8 0.5-2.8-2.2-1.5-1.7-2.2-1.1-1.7-3.4-2.6-2.6 2.7 0.9 0.7-0.7 0.3-1.5 0.9-0.7-1-2.2 1.7-1.3 1.9-0.3 0.6-0.5 0.3-2 1.2-3.1 1.7-0.8 0.8-2.6-1.1-1.8 0-1.1 4.6-0.3 0.9-0.6 2.3 0.6 2.4-1.3 1.7-2.5 0.8-0.3 3-0.4 3.3 0.6 2.9-1 0.2-2.1 2-0.3 3 0.2 1-1 2.4-0.2 2.6 0.2 3-1.1 1.9-0.2 0.2-0.9 4.2 0.1 1.6-0.5 1.2 1.7 2.4 1.4 0.9-0.6 3.7 1.2 1.7 1.1 3.4-0.9 3.2-0.4 1.8 0.3 2.5-1.2 0.2-0.8-0.9-2.7-0.7-1 1.6-1.1 1.6 0.5 1.2 0.3 2.3 1.5 0.9 3.1-3.4 2.5 0.5 4.4-2.5 3.2-0.8 0.4z" id="GR" name="Greece"/>
  <path d="M611.2 521.2l2.3 0.4-1.1 0.9-1.2-1.3z m12.9 1.5l1.6-0.1 0.6 0.9 6.2 3.8 1.7 0.7 1.2 1.9-4.8-3.1-4.4-2.5-3.1-0.7-4.3-2-0.5-0.9 5.8 2z m-6.3-3.5l-0.8 0.1-5.6-0.1-1.7-0.3-0.5-1.3 1.8 0.2 0.5 0.6 6.3 0.8z m-5.3-2.3l-2 0.1-2.6-0.8 0.3-1.1 4.8 0.6-0.5 1.2z m-21.2-16.5l-0.3 0.4-3.3-2.7-0.3-1.9 2.8 2.7 1.1 1.5z m-4.9-6.5l-1.9-0.2 0.8-1.1 1.1 1.3z m-4.2 1.5l-0.9-0.1-1.7-4.2 0.4-1.2-0.8-2 0.9-0.3 0.5 2.1 1 0.9-0.1 1.6 0.7 3.2z m3.7-4.9l-1.5 0.3-1-1-1.3-0.2-1-1 1-0.7 0.5-1.2 3.3 3.8z m49.5-14.7l-0.7 1.5 1.6 2.7 0.2 1.6 1.3 0.4-0.4 2 1.2 1 3 1 0.9 1.5-2.3 0.1-1.7 0.4 0.7 2.6-1 1.6-2.2-0.2-1.3-2.2-1.1-0.8-2.2-0.2-2.6-0.7-1.8 0.2-1.8-0.3-2.2 1-1.6-1.3-1.7 0.6-2.8-0.7-2.5-0.1-2.7-1.6-1.5 1.2-3.2-0.3-2.7 3.2-1.8-1-1.7-1.8-1.8-0.4-1.2 0.6-0.3 5 0.1 1.4 1.9 1.3 3.4 3.2 1.3 4 2.3 2.4 2.8 2.3 1.7 2 5 4.1 2.4 1.1 0.4 2.2 1.5 1.6 3 2.5-0.3 1.6-3.5-2.8-2.6-1.5-3.1-2.8-3.8-1.1-2.7-1.2-3.3 0.6-1.8-0.2-0.7-2.2-5.8-3.9-4.3-4-0.8-1.3 3.1-1.2-1.4-0.8-3.9-3.4-1.2-1.6-0.1-4.1-0.8-1.7-2.9-2.2-1.1-1.1-2.1-0.7-1.4 0.9-0.3 1.9-3 5-1.3 0-3.1-4.2-0.5-1.9-1.3-3.9 0.7-0.5 0.5 0.6 3.3 0.8 1.4-1.3 1.1 0.5 3.6-0.1 0.6-0.3 1.2-2.2 2.6 2.1 1.5 0.7 1.3-0.5 2 0.7 1.6 0.2 1.2-0.4-0.8-2.3 0.7-0.7-1-1.1 2.1-1 2.1-0.6 0.4-1.1-0.2-2.2-0.9-0.9 0.4-1.4 4.4-1.7 0.7-1 2 0 0-1.7 0.9-0.8 2.5 0.6 2.9 1.2 1.7 1.2 0.9 1.3 2.7 1.8 2.2 2.2 1.3 0.7 2.5 0.6 1.3 1.3 3.3 0.9 4.9 0.2 2.5-0.9 1.1-1.4 2.9-0.4z" id="HR" name="Croatia"/>
  <path d="M671 437.8l1.5 0 1.4 2.3 2.2 0.8 0.9 1.1 2.3 0.4 0.9 0.7 0.7 1.7-2.2 2.3-4.6 1.1-1.9 2.4-1.2 1 0.1 1.7-1.4 1.4-0.7 2.5-1.4 1.5 0 1.2-1.6 2.7 0.2 1.3-2.1 1.5-1.5 4.7-1.3 0.9-2.6-0.3-2.5 2-1.4-0.5-3.2 0.9-1-0.5-2.8-0.3-1.1 0.2-2.9-0.4-1 0.3-1.5 1.6-2.2 1-1.6-0.5-2.1 1.3-2.9 0.4-1.1 1.4-2.5 0.9-4.9-0.2-3.3-0.9-1.3-1.3-2.5-0.6-1.3-0.7-2.2-2.2-2.7-1.8-0.9-1.3-1.7-1.2-2.9-1.2-1.9-2.2-1.4-3.3-2.4-0.1 1.8-1.7 2.5-0.5 0.3-1.8-1.1-1.6 0.5-0.7-0.4-1.5 2.2-1.2 0.5-1.4-0.5-1.1-2.6-0.7 1.3-1.4 2.5 0.9 3.9-0.3-0.7-2 0.6-1.9 0.6-0.7 2.1 0.3 4.2 2.7 1.6 0.7 4.7 0.1 7-0.4 0.6-1-0.5-1.3 0.4-1 1.4-0.7 4.3-0.4 2.4-0.6 1-1.5 0.7-0.2 3.5 1.4 5-2.5 1.6-3.5 1.8-0.4 2.7 0.1 2.5 0.6 4.6-0.7 1.4 0.9 2.2 2.2 0.6 0.2 4.3-1.1z" id="HU" name="Hungary"/>
  <path d="M329.3 352l0.7 1.1-2.2 0.4 1.5 5.2 0.6 0.9 0 4.1 0.9 3.2 0.1 2.5-1.3 1.8-0.9 2.1-0.2 1.8-1.6 2.1-1.5 0.9 1.6 1.5-2.8 0.8-2.6-0.3-1.3 0.8-3.9 0.2-3.7 0.7-1.7 1.8-2.5 0.7-1 1-2.3 0.8-1.7-1.2-1 0.2 0.2 2.1-2.9 1.3-1.8 0.3-1 0.7-5.8 1.4-1.9-0.5-3.3 0.8-1.2-0.1 1.6-1.8 1.6-1.3-3.8 0.6-1.4 0.5-0.6-0.6 3.2-1.9-3.3 0.1-3-0.4-0.4-1 2.9-2.3 2.4-0.9-0.1-0.9-5.1 0.1 0.5-1.1 1.7-1 1.8-0.1 1.5 0.6 1.1-0.8-0.6-1.7 3.9-2.3 3-0.3 3.3-0.7 3.3-0.8-2.4-1.2-2.3 1.8-2.6 0.3-1.9-0.5-2.1 0 2.7-2 1.6-1.7-0.8-0.7 2-2.3 3.6-1-1.6-1.3-3.9 0.2-1.4-1.3-2.6 0.1 0.4-1.2-3.5-0.2 0.5-1-0.6-1.1 2.8-0.6-0.2-2 1.9-0.8 2-0.4 0.1-1.1-2-0.2-2 0.4 0.8-2.1-0.8-1-0.4-1.7-0.9-1 2.8-0.2 1.2-0.5 4.7 0.1 1.9 1.3 1.7-1.2 4.8 0.9 0.6-2.6 3.8-1.5 1.2-2-3.7 0.4-3.6-1 0.7-0.8 2.1-0.7 1.9-1.6-0.3-1.1 1.7-2.7 3.1-0.8 2.4 0 1.6-0.9 1.2 2-1 1 0.6 0.9 1.2-0.8-0.5-2.1 0.9-1.3 1.9-0.3 0.6-0.8 3.2 1.7-2.5 1.5-0.5 0.7-1.9 0.9-1 2.3-1.2 1.6-2.2 0.8-1.6-0.1-0.2 0.8 1 1.4-2.9 0.9-1 1.4 2.7 2 0.2 1 2.1 0.4 0.8 0.7 2.9 0.3 2.4-1.8-0.5-0.9 1.9-1.6 1.3 0.5 1.8 2.7 1.4 0.5-0.1 1.5 2.9 0 2.1-0.4z" id="IE" name="Ireland"/>
  <path d="M240.3 177.9l1.2 0.1 2.8-0.8 2.2-1.1 0.5 1.1-2.5 2.4 2.2 0.9 2 0.3-0.1 1.7-1.7 1.6 0.8 0.3 3.5-0.5 1 2.3 1.5-0.2 2.4 0.3 1.4 1.2 1.2-0.3 0.5 0.9-0.7 1.2-1.5 0.6 2.1 2.9 0 1.1-1 0.7-1.3 0-1 2.1-1.2 1.1-2 1-2.6-0.5-1.1 1.5 0.2 1.4-1.3 1.3-5.3 2.1-2.5 0-2.6 0.5-6.2 2-4.7 2.8-2 0.7-3.1 0.3-1.8 0.5-5.9 0.8-2 0.5-1.2 1.1-0.5 1.4-4 1.1-3.8 0.7-6.4-0.5-5.4-1.3-4.5-0.3-3.8-2.5-2.9-1-3.6-1.8-2.3 1.1-12.4 0.3-0.8-0.5-0.2-2.1 1.1-0.8 1.3 1.2 5-1.1 2.7-1.9 2.5-2.7-3.5 1.2-0.2-1.9-0.9-1.1-1.7-0.8-0.3-0.8 1.1-0.9-2.3-1.2-2.6 0.1-6.6-0.5-3.8 1-2 0.1-0.9-1 0-1.1 1.5-0.3 1.8 0.1 4.1-0.6 1.4-0.6 0.8 0.5 3.6-1.1 1 0.2 4-0.2 4.4-0.1 1.1-0.8 0.4-1.1-2.8 0.9-3.7-0.5-0.6-0.9 3.6-1.6 2.7-0.8-0.8-1.3-3.2 0.2-0.7-0.8-2.6-0.4-1.8 0.3-0.9-0.5-2.4 0.6-5.2 0.9-3.3 0.9-3.1-1.1-2.4-0.2 1.4-1.4 2-0.1 1.7 0.8 0.1-3.2 1.2 0.3 2.8 1.1-0.7-2.8 2.2 0.1-2.2-1.6 0.5-1 1.6-0.3 0.8-1 2.4 0 2.3 1.1 0.2 1.4 2.1 0 1.1-0.8 0.9 0.6 0.5 1.2 1.2 0 0.4-2.2-3.6-1.1-0.3-1.4 3.7-0.1-1.7-1.1-3 0.2-1.4-0.4 2.6-1.2 3.4 0 1.4 0.2 2.3 1.7 2 0.6 3.1 2.3 2.2 0.9 0 1.2 0.7 0.8-2.3 3.4 0.9 0.7-0.8 1.6 1.9 0.6 1 1.7 0.9-1.8 1.5-1.9 2.3-1.3 0.9 0.1 0.9 1 0.9 0.1 1.4-2 0.7-4.3 1.7-0.9 1.8 0.7 1.3 1.6 2.6 2.1 1.8-0.5 0.1-2.3 1-1.3 2-0.3 2.2-0.8 2.3-0.2 1.7 1.4 1.2 1.4 1.7 1.1 0.7 1.8 0.9-0.3-0.2-1.7-1.4-2.6 0.3-0.9 4.1 0.2 3 2.3 1.3-0.3 3.6-2.8 2.3 0.8 1.8 0.1 2.8-0.8 0.8-1.2-0.9-2.3 0.6-0.4 2.6-0.6 2.7 0.1 2.6 2.1-0.1 1 1.6 0.8z" id="IS" name="Iceland"/>
  <path d="M602.6 595.6l-1.2 2.5-2.8 4.3-1.5 5.1 0.3 2 1.6 1.4-0.7 0.5 1.6 1.8 0.1 1.3-1.8 1.9-0.4 1.7 0.1 1.5-2.9-0.6-1.4 0.3-3.7-1.4-1.9-2.8-3-2-3 0-1.4-0.5-2.9-1.9-3-1.4-2.6-2.1-1.7-0.4-1.5-1-2.9 0-2.3-1.6-1.3-2.3 1.3-3.7 1.4-0.8 0.9-1.2 2.3 2.3 1.8-0.8 1.4-1.6 2.4 0.1 0.5 0.9 1.4 0.3 2.5 1.6 1.4 0.4 3.4-1 3 0.4 2.8-0.5 1.7-0.6 1.2-1 1.4-0.3 3.5 0.3 2-1.2 0.8 0.2 2-1.2 1.1 1.1z m-78.3-41.5l0.7 0.9 1.8 5-0.6 1.6-1.3 2 0.8 2.8-0.6 11.5-0.6 2.9-0.9 0.4-2.9-1.2-1.5 0.3-1.2-0.6-0.3 3-1.8 2.1-3-0.2-0.7-0.6-2.4-3.8-0.4-4.3 0.6-1.3 0-2.5 1.1-0.1 0-1.7-1.8-1.2 0-1.9 0.7-1.4-0.1-2.6-0.8-0.9-0.8-2.3-2.2-2.4 0.1-3.4 3.4 0.6 1.3-0.3 3.1-1.5 2.1-2.5 1.4-0.5 1.5-1.8 0.7 0.9 2.2 0.8 1.2 1.5 0.9 0.5-0.7 1.4 1 0.8z m8.3-30.8l0.3 1.4-2.5 0.5-1.1-1.1 2.9-0.2 0.4-0.6z m37.9-56.6l-0.2 0.9-3.3 2.3 0.7 1.4 2.3 0.7-1.6 2.1 0.3 1 1.3 0.2-0.4 2 1.9 1.1 1.5 1.3 0.2 1.3-1.5 0.1 0.7-0.6-2-2.2-2 0.9-3.2-0.9-2.1 2-1.5 0.4-1.7 1.1-3.2 1.2-1.8-0.4-1 0.7-0.4 3.1 0.8 0.6 1.5 2.6 1.7 1.1-0.7 1.9-0.9 0.7-1.3-0.5-0.3 1.7 0.9 4.5 1.4 3.2 1.2 1.3 2.7 2.2 2.7 1.1 5.1 3.7 2.8 1.1 0.7 0.7 1.8 2.8 1.6 3.2 1.8 5.1 1.3 2.5 2.3 2.9 4.8 4.1 4.3 2.9 4 1.9 3 0.3 7-0.4 2.6 0.7 0.4 1.2-0.4 0.9-2.9 2.1 0 1.7 1.5 1.2 7.1 3.2 7.2 2.6 2.2 1.4 2.7 2.1 6.4 2.9 1.1 1.4 4 3 1.8 2.4 0.5 1.8-1.5 4.4-1.6-0.5-1.9-1.3-3.1-5.4-5-0.5-2.9-1.3-0.7-1.4-2.3-0.4-1.3 0.9-1.4 2-1.5 3-1.5 4.3 0 1.7 1.1 1.7 2.9 1 2.4 1.5 1.6 1.6 0.3 3.8 0.9 2.1-0.9 1.3-1.9-0.3-2.5 0.7-1.7 1.4-0.7 1.4 0.5 3.4-0.3 1.4-3.3 2.5-1.6 2.5-1 2.3-4.3 0-1.1-1.5-0.1-2.2 0.6-1.3 1.6-0.7 0.9-2.8-0.5-2 1.1-1.6 2.8-0.7 0-2.9-1.4-1.3-1.4-5.1-2.4-4.3-1.4-3.8-1.1-1.8-1.4-1-3.7-0.3-4.6-2.6-0.3-1.1 0.6-1.1-1.1-2.8-2-1.7-2.6 0.6-1.2-0.1-0.1-1.5-2-1.3-2.7-0.2-0.7-0.7-2.6-4-1.7-1.7-2.3 0.1-3.9-0.9-2 0.7-3.2-2.6-2.8-0.9-5.7-5.3-1.8-2-3.5-2.2-2.3-3.2-1.8-1.2-4-1.4-0.3-1.3-3.1-3.1-1.7-1-1.3-2.1-2.5-0.5 0.1-2.7-1.2-3.5-1.7-2.2-1.2-5.3-0.8-1.5-1.8-1.1-4-1.2-5.7-3.4-1.1-0.1-3.4-1.3-2.1-0.2-2.6 1.2-3.1 3.2-2.5 3.4-0.9 0.6-3.4 1.2-3 0.5-0.2-1.5 2.1-2.6-0.3-2-3.3 0.6-5.1-2.4-0.9-0.9-0.1-1.4-0.7-1.3 1.4-2.5 0.8-0.7-0.5-1.7-3.2-1.4-1.5-3.1 0.8-0.4 1.9 0.2 1.7-1.3 1.2-0.3 0.8-2.5-1.8-1.6-1.7-2.6-0.9-0.6-0.1-1.6 2.6-1.7 1.4 0.7 2.4-0.5 2.6-1 3.1 0.8 2.4-1.4 1.6-2.2-0.6-1.5 3.4-2.9 1 0.6 0.2 2.5 2.4 2 2.2 0.6-0.4 1.2 1.3 1.2 0.9 1.4 1.2-0.7-0.7-1.7 0.2-1 2.2-2.6 0.5-1.1 0-2.9 2-0.1 0.8 2.1 2 0.8 2.9-1.1 0.7 0.1 1.4 1.9 1.2-0.3-1.5-3.5 0.6-1.8 1.3-0.3 1 0.9 1.9 0.2-0.5-1.8 0.5-3.1 3 0.3 0.9 0.8 2.1 0.4 1.1-0.4 1.2-2.2 1.4-0.6 3.4-0.3 3.1 0.2 4.7-1.5 0 2.3 3.1 3.5 1.1 0.5 8.6 1.5 4 0.3 2.6 0.5z" id="IT" name="Italy"/>
  <path d="M519.4 458.5l-1.2-0.1-0.1-1.7 0.5-1.5 1.1 2.5-0.3 0.8z" id="LI" name="Liechtenstein"/>
  <path d="M707.9 328.5l0 1.8-0.7 3.1 3.9 1-1.3 1-0.4 1.1-3.6-0.1-1 2-0.8 0.6-2.6 0.6-1.1 3 0.4 2.3-1 1.5-0.5 2 1.9 0.5 0.9 1.1 0 1-2 0.2-1.7-2.3-1 0.7-2.1 0.5-1.4 1.2-2-0.2-0.8 2.6-1.8-0.1-3.3 1.3-1.6-0.9-3.7 0.3-1.6 0.3-2.9-0.4-0.8-3-1.1-0.9-4.5-2.2-2.3-0.7-0.6 0.6-1.3-2 0-2.1 1-3.1-1.3-1.3-1.4-0.6-0.9-1.3-5.7-0.1-2.4-0.6-3.9-1.4-2-1.2-1.8 0.2-0.6-1.2 0.2-1.6-1.1-2.4-1.6-2.9-0.7-3.8 2.8-1.7 3.6-1.9 4.7-1.4 5.9 0.5 4.3-0.1 1 0.9 1.6-0.7 4.9 0.5 2.3 0.1 3.7 0.9 4.6-0.4 1.7-1.3 2.3-0.2 2.4 2.9 6.1 1 0.9 0.4 5.4 3.1 2.6 2.1 1.5 0.7 2.3 0.5z" id="LT" name="Lithuania"/>
  <path d="M475.4 411.7l0.3 2.2 1.5 1.6 2.8 1.1 0 1.4-0.9 0.9-0.6 3-1.3-0.7-2 0.6-1.4 0-2.1-1.2 1.1-1.7-2-2.4 0.2-1.7 1.4-2.5 1.3-1.3 1.7 0.7z" id="LU" name="Luxembourg"/>
  <path d="M711.6 301.2l1.9 0.3 0.5 1.1 3.2 1.7 0.7 2.2-0.8 1.6-0.3 3.1 1.8-0.3 1 0.6 0.3 1.2 1.7 2.1 1.3 0.8 1.9 4.2-0.3 1.7-1.3 0.2-1.4 0.8-2.5 2.4-0.4 1.7-3.1-0.1-3-0.4-1.1 0.3-1.2 1.5-2.6 0.6-2.3-0.5-1.5-0.7-2.6-2.1-5.4-3.1-0.9-0.4-6.1-1-2.4-2.9-2.3 0.2-1.7 1.3-4.6 0.4-3.7-0.9-2.3-0.1-4.9-0.5-1.6 0.7-1-0.9-4.3 0.1-5.9-0.5-4.7 1.4-3.6 1.9-2.8 1.7-0.8-2.8-0.6-5.5 0.1-2.8 1.9-1.6 0.8-1.2 0.6-4.5 2.5-3.6 2.4-0.4 3.1-1 3.5-0.9 1.4 1.9 4.9 3 1.2 1 2.3 3.4 4.4 1.8 3.1-0.6 3.6-2.4 1-1.1 0-1.1-1.2-4.7-1.1-2 0.1-1.3 8.4-2.8 1.5 1 1.1-0.7 5.6 2.5 2.3 0.5 0.6 0.7 3.5 2.7 2.8 1.1 4-1.2 3.4 1 1.9 0.2z" id="LV" name="Latvia"/>
  <path d="M751.4 483.2l-2-2.3 0.9-0.7-1.4-5-0.1-2.6 0.9-4.8-0.5-2.9-1.4-2.3-1.4-2.9-3-2.1-1.3-1.7-2.1-1.8-2.5-3.2-1.5-1.3-3-4.9-2.5-3-2.5-1.6-2.1 0 0.2-0.6 2.3-1.4 0.7 0.2 4 0.1 1.2-1 0.8 0.3 1.6-1 3.5 1 3.6 2.4 2.5 0.3 0.6 1.2 5.6 0.6 1.4 1.9 1.4 1 1.4-0.7 1.4 1.4 0.6 2.3-0.6 3.1 0.6 1.2 2.3 1.2 2.9 2 0 2.4 0.9 1.9 2 1.3 2.1 0.8 1 1.6 0.2 2.9 2.9 1.7-0.6 0.7-2.9 0.4-1.2-1.3-1.6 0.6-2.1-0.8-1.9-0.2-2.1-1-2.5 1.6 0.5 2.1 1 1.7-0.4 2-2.3 1.7 0 1.3-2.5 2.9 0.5 1.4-0.4 1-2 0.2-1.1 0.7z" id="MD" name="Moldova"/>
  <path d="M683.8 531.8l3.3 3.2 3.4 1.8 1.7 3.3 0.9 1-0.5 1.7 0 4.2-2 0.3-0.2 2.1-2.9 1-3.3-0.6-3 0.4-0.8 0.3-1.7 2.5-2.4 1.3-2.3-0.6-0.9 0.6-4.6 0.3-1.3-1.1-1.6 0.2-1.3-2.4-1.2-1.1-1.2-2.2-0.2-1.9-0.7-2 0.8-0.8-0.3-2.1 0.5-2.6 1.7 0.3 0.5-0.8 0.2-2.6 3.4-1.5 1-0.1 1.6 1.2 1.5-1.9 2.1-0.4 2.2-0.3 2-0.9 1.9 0.3 2.3-0.8 1.4 0.7z" id="MK" name="Macedonia"/>
  <path d="M642.4 512.9l0.4 1.2 2.6 1.7 1.9 2 3 1.6 2.1 0.5 5.3 2.9 0.1 1-1.6 0.4-0.2 0.7-2 0.4 0.9 1.5-0.2 1.3-3.4 1.2-0.8-2.1-1.1-0.3-3.2 5.3-0.8 0.3-2.5-0.2 1.6 1.9 1.7 0.8 0.3 0.6 0 3.1-2.1-1.2-0.9-1.8-3.1-2.9-3.5-2 0.1-1-1.6 0.1-1.2-1.9 1.1-1 0.1-0.8-1.1-1.6-0.6-3 0.5-0.7 1.7-0.2-0.1-1.5 0.5-1.7 2-1.7 2.3-0.2-1.4-2.2 3.2-0.5z" id="ME" name="Montenegro"/>
  <path d="M458 260.9l0.1 1.7-1-0.1-0.7-1.1-0.2-2 0.7-0.5 1.1 2z m-1.8-11.1l-1.8 0 0.3-1.3 0.9-0.3 0.6 1.6z m32.5-31.9l-2.3-0.2-1-0.8 2.8-0.8 0.7 0.5-0.2 1.3z m3.6-4.6l-0.3-0.9 2.7-0.6 0.9 1-3.3 0.5z m28-16.6l-4.2 0.3-0.3-1.1 2.1-0.8 1.2 0 1.2 1.6z m6.8-10.5l-2 0.3 0.1-1.1 1.8-0.3 0.1 1.1z m4.1-5.7l-0.1-1.1 1-1.2 1 0.4-0.3 1.5-1.6 0.4z m3.1-24.9l-1.5 0.7 1.1-2.6 1.1-0.7 0.4 1.5-1.1 1.1z m8.5-5.2l2.3 0.2-0.5 0.8-1.4 0.3-1.1 0.8-1.9 0.2-1.9 1-1.6 0.3-0.4-1.2 0.9-1 1.3 0 1-1.2 3.3-0.2z m12.4-9l2.2 2.1-0.3 1.5-1.2 0.7-3.3 0.1-1.6-0.9-2.2 0.6-1.6-1.1 1.6-1.4 2.6 0.4 0.5-1.7 1.7 0.3 0.4-1.5 1.2 0.9z m6.3 5l1.3-1.1 1.5-0.4 0.6-2.2 1.8-0.5 1.6 1 0.9 1.2-0.2 1.1-3.1 1.2-2.5 2-1.6-0.2-0.7 0.7-2.4 0.6-1.7-0.9-0.9 0.9-1.4 0.4-1.2-0.4-2.9 1.5-2.8 0.3-1-1.1 3.1-1.9 5.1-0.6 2.9-2.3 0.4-2.5 0.6-0.9-1.3-0.6 0.2-1.7 2.4-1.7 1.3-1.4 1.5-0.3 0.9 1.1-1.1 1.4-1.6 1.2 1.1 1.5 0.6 2.4-1.4 2.2z m15.5-13.7l1.4 0.8 1.5-0.3 2.3 0.7 1 1.5-1.2 0.9 0.4 1.7-3.8 0.5-0.9-0.5-1.5 0.9-1.4 1.4-2.2-0.6 0.2-1.6-0.3-2.3 0.7-0.5 2.9 0.3-0.4-2 1.3-0.9z m124-2.6l-1.8 0.4 0.2-1.8 1.6 1.4z m-92.4-3.8l-1.3 0.4-1.8-0.3-0.7-1 2.2-1 1.7 0.3-0.1 1.6z m-15.1 0.3l1 0.7 1.5-0.5 1.1 1-1.4 0.8-0.8 1.2-2 0.1-2.9 2.3-0.1 0.8-5 0.5-1.5-0.3 1.7-2.7 1.7 0 1.7-0.8-0.3-0.8 2.5-2 0.6-1.7 1.4-1 0.8 2.4z m4.8-2l1.4 0.2 1.3 1.6-2.3 0-2-1.8 1.6 0z m37.3-4.3l0.5 1.1-3.3 2.1-1.6 0.1-2.1-1.2 0.1-0.8 1.9-0.9 0.9 0.1 2.7-1.4 0.9 0.9z m3.9-0.3l-1.8 0.5-1.7-0.9-0.2-1.6 0.8-0.3 3.2 1.2-0.3 1.1z m-6.4-3.2l-0.4 0.8-2.7 2.1-2.2 0.7-1.8-0.3-0.8 0.6-2 0-2-0.6-2-1.2 3.5-0.1 0.6-0.5 1.5 0 2.8-0.4 1.1 0.3 2.1-1.4 2.3 0z m60.6 23.5l-1.7-1.3 0-0.7 3.2-2.9 0.7-1-2.6-2.7-3.6-0.8-4.2-1.1-4.2-2-1.8-1.2-2.9 0.3-3.5 1.6-0.9 0.2-3.8-0.4-2.1 0.2-1.7 1.8-2.6 1.7-0.7 3.8-0.6 1.7 0.7 3.2-1.5 1.4-2.1 0.3-1.6 1.3-0.5 1.7-1.3 0.6-2.6-0.8-3.9-0.8-3.6-1.1-1.5-0.1-1.2 1.2-3.7 0.9-1.8 0.1-0.8-0.5-6.9-0.6-1.4-1.8-7.9-5.5-3.6 0-1.9 1.1 1 1.4-0.5 0.6-1.9-0.4-2.1 0-0.5 0.4-5.1 0.2 2.6 1.6 0.1 2-1.4 1.9-1.6 0.9 2.9 0.9-2.5 1.6-1-0.1-8.6-1.7-2.9-0.1-4.1-0.9-2.1 0.5 0 0.8 0.8 3.6-2.1 3.1-6.3-1.8-1.5 0.9-3.7 1.9-1.5 3.5-1.1 1.1-2.7 0.6-0.5 1.1 2.7 2.3 1 1.3-0.2 1.4-1.5 1-3.3 2.9-3 2.9-1.3 0.9 1 2.5-3.3 1.5-2.4 0.5-3.8 0.4 1.4 3.9-0.6 2.7-0.1 4.7-3.3 5-4.4 5 4.7 1.6 1.1 2.9 0.1 1.2-1.7 2.2-7.1-0.9-3.3 0.4-3.3 1.5-3.5 3.8-1.2 1 0.5 1.5-2 2.8 2.7 4.1-1.1 1.1 0.6 2.8-0.1 1.8 2.5 4.4 0 1.6-0.9 6.4 3.8 2.1 1.2 0.4 3.4 2.7-0.4 1.9-1.3 2.5-2.4 0-1.8 0.6 0.3 1.6 3.1 4.9 0.5 1.4-0.6 2.1-0.1 2.8-1.9 2-1.3 0.8-2.6 0.7-0.9 2.4-1.5 1.5 1.6 4.4-0.6 3.9-0.7 1.4-1.9 0.2-1-1.8-0.4-1-6-1.2-2.3-2.9-0.4-3.1-2.5 1.2 0.6 1.1 0 2.3-2.5 3.9-1.1-0.2-1.3 0.8-1.3 0.2-0.6-1-1.1 0.2-0.8 1-3.4 1.3 1 0.7-1.7 1-0.6 0.9-2.7 1.5-4.3 3.9-2.3 1.1-1.6 1.2-1.4 0-1.8 0.9-4.6 0.9-3.1-0.4-2.1 0.4-1.1-0.7 0-1.1-1.2-0.1-0.8 1.2-1.6-0.4 0.7-2.4-3.1-0.1-3.8-1.6-0.9-0.8-3.1-1.3-1.4-1.4-0.8-1.6 0.3-3.6 0.6-0.5 2.7 0.8 2.8 1.3-0.1-1.2-2.4-1.6 0.8-1.8-0.2-1.6 2.6-2.1-0.4-0.7-3.4 2-3.1 0.9-1.1 1.2-1.1 0.6-2.1 0-0.5-0.9 0.5-3.3 1.2-2.7 1.8-1 3.4 0.7 1-1 1.3-0.2 2.4-1.2-4.1 0.5-1.2-1 2.8-2.4 1.2-1.4 0.3-1.5 2.2-1.7 1.8-0.8 1.6 0.6 1.5-1.9-5 1.1-2 1.1-2.7 2.8-0.2 1.1-2 0.9-1.5 1.5-0.6 1.2-2.8 1.9-1.4 0.3 0-2.4 1.1-2-0.3-1.6 3.2 0.2 1.8-1.2-2.7 0-1.4-0.7-1.2-1.5-0.6-1.9 1.1-1.8-2.2-2-0.5-2.2-0.1-2.5 0.9-0.5 2.1 0.4 2.4-0.2 5.2-0.9 3.4 0.6 1.4-0.1 2-0.7 1.9-0.1 2.2 1.2 0.7-0.5 5.4-1.2-3-1.5 0.1 1.4-3.6 0.3-3.2-0.6-1.3-0.6-0.5 1.3-1.1 0.3-3.4-0.5-4.7 0.3-2.1 0.7-1.4-0.1-2.5-1.2-0.9-0.9-0.3-2.6 2.8-0.3-1.9-2.3-1.9-1.3-0.2-1.4 0.7-1.3 1.5 0.2 3.8-0.1 6 1.5 4.9-0.3-0.8-0.6-2.9 0-7.2-1.3-2.2 0.1-1.2-0.3-0.7-1 0.4-1.9 1.1-0.4 1.2 0.6 1.9-2.3 1.9-1 2-0.5 2 1 1.3-0.1 4-0.8-1.3-0.5-3.5 0.5-0.2-0.5 2.4-2.3 4.2-0.4 5.9 0.5 2.3 0.8 0.4-1.8 5.3-1.4-6.8 0.8-1.8-0.5-4.9 0.7-0.1-1.3 2.3-2.3 4.1-0.9 1.9-1.1 3.1-0.2 2.6 0.3 1.2 1.3 4.4 1.7-5.1-4 1.1-1.7 3.3-0.4 0-1.6-2.2-0.3 0-1.2 1.9-0.9 2.8-0.7 3.2 0.8-0.6 1.3 0.9 0.5 1.7-1.5 3.9-0.8 2.8 2.1 0.5 1.1 1.1-0.5 2.7-0.5 2.7 0.3 1.8-0.2-1-1.3 0.4-1 2.4-1 1.7-0.3 2.6-1.2-0.8-1-1.4-0.3 2.9-1.5-1.7-0.6-2.4 0.9-1.6 0.9 1.5 1-1.1 1.1-6.1 2.8-3 0.8-1.4-0.1-1.9-2.5-2.1-0.1 1.3-2.2 1.6-0.8 1.4-2.3 2.3-1.3 3.2-3.3 2.8-1.1 0.9-1.1 3-1.5 3-0.9 0.3-1-2.7 0.9 0.4-2.1 1.4-1 6.8-2.8 1.6 1.3 2.1-0.2 2.3-1.6-0.3-0.7-2.1 1-1.5 0-0.4-0.6-2.1-0.5-0.3-1.2 1.3-2.8 3.4-3.3 0.5-1.3 1.3-0.7 1.7 0.2-0.2-1.1-2.1-1.1 6.2-1.1 3 0 2.4-0.9 0.5-1-6.4 1.1-2.4 0.1-0.8-2.7 0.2-1.5 1.9-2.2 1.4-0.2 1.7-1.1 0.1-1.5 2.3-0.8 2.1-2.1 2.3-0.5 1.4 0.2 3-0.7 6.6-0.1 0.1-0.6-6.3-0.3-3.5 0.2-0.4-0.6 2.8-2.7 2-1 1.7 0.2 1.8 1 0.6-0.8-1.6-1.5 0.7-1.5-2.6 1.1-1.8 0.3-0.9-2 2.3-2 2.3 0 0.3-1.5 3.3-1.3 1.9-0.2 1.5-0.6 0.6 0.4 0.9 2.3 1.5 0.3 1-0.8-1.3-1.1-1.1-1.8 2-1.5 2.3-0.2 2.6 0.7 2.3-0.2 0.9-1.2-6.3-0.1-0.8-0.9 1.2-1.2 2.2-0.8 2.5-0.1 2.4-1.4 0.9-1.1 0.3-1.6 1.4-1.3 3.9-0.8-0.6-2.2 0.8-1.4 1-0.6 2.1 1.5 1.8 0.5-0.5-1.4 0.3-1.2 2.1 0 1-0.5 0.3-1.3 1.4-1.2 4.7-0.7 0.5 2.5 0.7 1.4 0.8-2.8 1.6-2.1 2.4-0.9 0.9 1.1-0.4 4.3-1.9 2.4 1.5-0.2 2.5-2.3 0.6-1.2-0.7-2.8 0.6-0.8 3.5-0.1 1.9 0.4 0.7-1.5 1.7-0.1 1.8 0.9 4.1 1.4-1.3-2.2-1-0.8-2.1-0.5-2.2-1 1.2-1 2.4 0.3 2-0.8 2.2-0.2 1.1 0.6 0.8-1 2.5-0.5 2.8 0.9 1.6 2.7 2.4 1.4-0.1-1.4 0.6-1.9 2.3-2 2.1-1 1.4-0.1 2.9-3.4-1.6-1 3.3-2.3 1.1-0.1 5.4 2.1 1.5-0.9 3.4 0.8-0.8 1-3.1 2.9-0.5 0.8-0.1 2.2-1.2 1.4 0.8 1.4 1.6-0.4 1.8-1.3 0.1-1.3 4.3-3.7 1.9-2.1 2.3-1.7 1.5-0.3 0.9 1.1-0.2 1.5 0.2 4.3 3.7-1.4 1.1-3 1.1-0.7-0.8-1.4 0.4-1.1 2.3-1.3 2.2 0.4 3.3 0.3 2.7 0.8 0.2 1.4-0.8 0.9-2.9 1.1 0.7 0.7 2-0.6 0.9 5.5 0.9-2.1 1-0.7 0.1-1.5 0.8-1.9 1.8-1.3 2.7 0 3.3 1.7 2.5 0.3 1.8 0.8 2.4-0.7 2 1 0.1 1 3.8 0.3 3.8 1.6 0.6 1.6-4.4 1-1.8 1-3.3 0.4-11.5-0.7 0.4 0.7 8.3 1.5 0.6 0.5 0.4 2.1 1.8 0.7 3.5-0.2 0-1.3 3.2 0.6 3.8 0.2 1.1 1.7-0.3 1.5-2.4 0.1-4.2-1.4-0.4 2.3-1.1 0.9-5.8 1.3-1.1 2.6-2.2 1z m-40.5-27.7l3.7 0.5 2.2 1.4-3.6 0.5-1.7-0.1-2-1.8 1.4-0.5z m-339.6 3.9l-0.1-1 4.5-1.5 1.9-1.4 3.4-0.5-0.2 1.8-3 0.8-3.3 0.5-3.2 1.3z m269.2-45l-1 0.5-1.9-0.8-0.8-1.2 3-0.1 0.7 1.6z m9.6-50.1l3.9 0.2 2 1.9 1.4 2 1.3 0.2 4.7-0.4 3.4 0.7-1.4 1.1 0 1.2 5.5 1.3 1.8 0.1 3-0.4 6.5 1.7-6.6 1.1-2 1.9-3.7 1.3-2.6 0-2.3 1.3-2.2 0.1-1.5-1.9 2.2-1.3-3.1-0.4-1.2 0.5-10.5 1-1.1-0.2-0.9-1.2 2.8-0.6 0.2-1.1 2.5-2.4-5.5-1.6-2-1.2-0.8-1-2.5-0.9 0-1-1.7 0.1-0.4-1.2 10.8-0.9z m46.2-0.6l-1.3 0-2.6-0.8 0.7-1 3.2 1.8z m-137.6 0.4l3.5 1.5 1.9 0.5 2.3 1.5-0.7 0.9-2-1.2-3.6-1.3-2.3-0.2-3.3-2.5-1.5-0.8-0.8-1.7 3.6 0.7 1.6 1-0.3 0.8 1.6 0.8z m155.6-3.4l2.7 0.1-0.1 0.6-7.3-0.4-3.8 0.7 0.4-0.9 2.4-0.6 3.7-0.1 2 0.6z m-109.9-10.8l1.4-0.6 5.4 0.8 2.5 0.9 1.3 1-1.9 1.9 1.7 1 3.2-1.7 2.7 0.3 1.7 0.9 1 1.1-0.2 1.4 3.1 1.1 3.4-0.2 2.4 0.3 1.5 1 1.9-0.2 0.2-0.8 2.6 0.2 3 0.8-2.1 0.9 2.1 0.8 3.4 0.6 2.1 0.6-1.5 1.4-3.2 0-2.9 0.3-5.4 0.3-3 1.6-2.5 1.8-0.4 1.6 0.6 1.1-1.5 0.5-3.3 0.2 0.2 3.9-0.8 1.9-3.3 0.3-1.8 1.1-1.2 2.1-2.1 2 1 1-2.1 1.9 1.2 1.8-1 0.6-2.1 0.3-2.2-0.3-2.3-1.1-6.7-2.2-4.3-2.4-6-1.3-3.3-1.6-1.5-1.3 0.3-1.4 2.8-0.2 2.9 0.7 1.7-1.9 11.3-1.1 7.3-0.2-1.9-1.3-6.9 0.7-4.3-0.2-2.1 0.1-2.1 0.6-4.3 0.5-4.6-0.1-2.9-1-1.3-2 1.2-0.6 3.8 0.1 6.4-0.9 3-0.8 3.1-0.1-0.5-0.8 1.8-0.4 2.4-0.2 5.6 0.1 0.2-0.6-2.6-0.6-0.9-0.6 2.6-1.8-2.2 0.1-3 1.3-1.8 0.5-4.6 0.3-1.7-1.6 0.9-1.2-0.8-0.7-1.3 1.3-2.1 0.3-2-0.9-1.9 0.5 0.7 1-0.6 1 2 0.9-2.3 0.6-2.1 1.1-3.9 0.2-4.5 0.1-4.6-1.6-2.2-1.2-1.8-1.2-2.7-0.6-1.7-0.8-0.4-1.1-1.4-0.7-0.7-1.2 4.4 0-1.7-1.8 0.5-1.6-3.4 0.1 0.4 0.9-2.2 1-1.2-0.2-2.3-1.9-2.4-2.4 0.4-1.3-1.2-1 1.5-0.7 2.5 0.9 0.8-0.7 3.8-0.4 4.6 1.1 0.4-1.1 4.2 0.5 3-0.6 5-0.3 2 0.4-1 1.1-6.3 0.3-4 1.3 5.7-0.2 1 0.1 0.6 1.1 3 0.5 2.3 1 0.8-0.5-0.6-2.2 4.4-2.3 2.1 0.4 2.1 0.9 4 3 2.3 1.9 6.1 2.8-0.7-1.5-4.2-4.5-0.9-1.7 0.9-1.7 1.1-0.5-0.4-1.3 1.3-0.5 2.4 0.3 2.6 1.3z m134.7-2.3l-8 0.4-0.9-0.3 15.7-1.4 1.7 0.5-8.5 0.8z m-118.9-1.9l-1.8 0.6-3.2-0.5 0.9-0.7 4.1 0.6z m18.6 0.5l5.6 0.1 1.5 0.9 5.5 1.1 0.8-1.5-0.6-2.2 1.9-0.1 1.7-0.6 3.1 0.3 0.2 1.3-0.5 1.4 2.1 0.1 2.8-0.3 1.9-1.1 2.4 0.1 1.3-0.6 1.4 0.6 8.2 0.7 3.3 0.6 5.2 0 3.7 0.2 2.8 1 1.1 1.7-0.9 0.4-6.7 2-1.6 0.7-2.4 2.3-4.1 0.7-3.5-0.3-3 0.7-1.9 1-1.5 0.2-9.2-0.4-2.2-1.1 1.2-0.9-8.2 0.3-9.2-0.1-1-0.5-5.6-0.5-4.2-1.1 1.1-0.5 5.8 0-0.7-1.5-2.9-0.1-1.8 0.4-4.3 0.2-4-0.1-1.9-0.3-3.8-1-0.7-0.8 2.8-0.4 2.1-0.7-4.5-0.3-1.9-0.3-0.6-0.9 5.9-0.2 5 0.8-0.7-2.2 3.9 1.1 0.2-1.1-2-1.4 2-0.1 4.5 0.7 5.1 1.6z" id="NO" name="Norway"/>
  <path d="M666.8 348l0.6-0.6 2.3 0.7 4.5 2.2 1.1 0.9 0.8 3 2.1 5.1 2.9 4.9 1.7 3.6 0.9 3.9-0.6 1.6-4 1.7-0.8 0.5-2 2.7 0 1.2 3.3 1.3 1.8 1 0.8 1-0.2 2.4 0.4 1.1-0.8 1.5 0.1 1.3 1 1.6 1.2 1.8 0 1.3 2.7 2.8 1.9 2.8 1.4 1-1.2 1.3 1.8 2.6 0.1 1.3-1.2 1.8-3 0.5-4.8 4.6-2.4 2.7-3.4 4.4-0.6 1 1.5 3.8-0.1 1.8 1.9 1.4-0.4 0.9-3.3-0.7-0.9-0.2-5.7-1.9-0.8-1.4-1-0.7-3.1-1-3.6-0.3-3.2 0.2-1.4 1.5-1.8-0.1-2.4-1-3 0.1-2.3 1-1.1 2.1-1.7-0.6-1.4 0.4-0.6-2.7-1.4-0.4-3-3-2.2 1.3-1 1.7-2.2 0-0.5-1.5-1.3-0.2-0.5-1.6-2.8-2.2-0.5-1.8-2.7-0.8-0.5 0.2-3.5-1.8-1.8 1-1-0.6-2.7-2.3 1.4-0.5 0-1.6-3.6 0.7-3.3-1.9-2.2-0.6-1.3 0 1.7 2.4-3.5 2.5-1-0.4-1.5-1.9-2-1.8-1.6-0.9 1.6-1.2 0.7-1.1-1.8-1.2-3.2 0.7-0.8-0.9-2.7-1.1-4.6-1.1-1-1.1-0.3-1.1-3.3-0.8 0.1 1.9-2.1 0.4 1.6-3.6 0.4-2.3-1.6-3.2-2.2-0.9 0-1.6-1.9-3.1 0.8-1.1 0.7-2.6-0.8-1.9-2-2.3 0.6-2.6-1.4-1.7-3.3-2.1-1.6-1.4 0.7-1.6 1.9-1.8 0.3-2.7-1.8-4.1-0.7-2.6 2.8 0.9 0.7-0.5-0.1-1.8-4.1-0.7-0.1-1.2 2 0.4 3.8-1.4 6.5-1.8 6.9-1.7 3.3-0.5 2-2.2 1.9-1.7 3.8-0.7 1.3-0.8 2.8-1.2 6.6-1.2 5.5-0.4 5.4 2.3-0.9 0.3-3-1.2 2.2 3.5 1.1 1.2 2 0.9 1.7 0.3 4.9-0.5 2.2-1.1 0.5 0.1 6.6 0.4 22.9 0.9 7 0.1z" id="PL" name="Poland"/>
  <path d="M306 611.9l-1.2 0.2-4.5 2.5-1.3 0-2.5-1.1-4.5-0.4-1.5-0.3-1.8 0.7-1.5 0-1.1 1-0.8-0.3 1-2.1 1.6-4.1 0-2.6 0.4-2.2-0.3-2.1-0.7-1.4 1.1-3.5 0-1.8-0.9-2.3 2.8 0.3-1.7-1.4-1.5 0-2.3 0.9-1.5 0.1 0.1-1.4-0.5-1.8 2-0.6 1.6-1.7-0.3-1.6-1.2 1.1-0.6 1.4-2.8 0.7-1.5-0.5 0-1.9 0.6-1.7 0.4-2.3 0.8-2.2-0.2-1.4 1.6-1.3 1.4-1.9 4.3-8.9-0.6-1 1.7-6.6 1.2-2.3 0.6-4.3-0.2-2-0.7-2-0.7-4.3 0-1.4-0.9-1.8 0.1-1 1.4-1.7 1.2-1.1 1.9-0.9 4.1-1 1 1.8-1.3 1.9 0.9 1.3 3-1.1 2.9-0.1 2.2 0.8 1.4 0 2.5-0.9 0.8-1.4 1.5 0.5 5.2 0.1 0.7 1.1 0.1 3.1 1.9 0.2 1.9 0.9 0.3 1.1-2.5 2.5-2.1 1.1-1.6 1.4-1.1 1.6-2 1.6 0.8 2 0.4 3.5-0.4 3.8 0.4 1.1-2.7 2.1-0.2 1 1.4 1.3 0 1.9-1.7 3.5-1 0.5-4.3 0-1.1 0.3 1.1 1.9 1.4 1.2 0.3 1.9 1.6 3.2 1.7 0.4 0.5 0.8-0.6 2.4-3.2 3-0.9 4 3 4.3 1.7-0.2-0.7 2.4-2.1 0.6-3.5 4.3-0.8 2.2 1.1 6.4z" id="PT" name="Portugal"/>
  <path d="M751.4 483.2l1.5 1.6 1.8 0.9 4 0.9 0.6-1.2 0.9 0.3 1.6-0.5 2.2-1.3 2.2-0.2 2.2 0.7 1.9 1.8-0.2 4.3-0.7 2.1-6.2 1.3 0.4-0.6-0.7-2-1-1-0.9 1.1 0.6 1.7-0.7 1.4-0.2 2.4 0.6 0.9-1.6 2-0.5 1.3 0.8 4.8-0.4 3.7-2 0-2.6-0.5-2.2-0.7-2.5-2.6-1.7 0.5-0.9-0.6-3.2-0.4-4.5-2.3-2.9 0.4-4.4 0.9-3.2 1.2-3.3 2.1-1.2 1.6-1.6 0.9-2.3 0.6-4.2-0.2-9.4-1.7-2.5 0.5-3.5-0.4-5.3-1-3.9-0.3-3.7 0.6-0.9-1.8 1.8-2-4.3-2.5-0.8-1.2-1.6-0.9-0.5-1.7 2.5-1.8-3-1.6-1.7 0.5-1.7 1.8-1.3 0.2-1-1.2-1.5-0.7-3.5-0.7-1.5-1.2-2.1-0.6 0.2-0.6 1.8-0.8-2.3-1.1 1.5-2-0.9-1.1-2.6-0.8-3.8-1.9-2.2-1.8-0.4-4.1-0.8 0.2-1.8-2-2.9-1.7-1.7-2 3.2-0.9 1.4 0.5 2.5-2 2.6 0.3 1.3-0.9 1.5-4.7 2.1-1.5-0.2-1.3 1.6-2.7 0-1.2 1.4-1.5 0.7-2.5 1.4-1.4-0.1-1.7 1.2-1 1.9-2.4 4.6-1.1 2.2-2.3 2.1-0.9 0.9-1.2 0.7 0 2.7 1.5 2.7-0.1 6.9 1.4 3.6-0.7 1.2 0.3 4.3 3.3 2.1-0.5 1-1.2 3.4-1.3 8.4-1.2 1.1-1.9 0.2-1.4 3.7-0.8 2.1 0 2.5 1.6 2.5 3 3 4.9 1.5 1.3 2.5 3.2 2.1 1.8 1.3 1.7 3 2.1 1.4 2.9 1.4 2.3 0.5 2.9-0.9 4.8 0.1 2.6 1.4 5-0.9 0.7 2 2.3z" id="RO" name="Romania"/>
  <path d="M651.6 473.1l1.7 2 2.9 1.7 1.8 2 0.8-0.2 0.4 4.1 2.2 1.8 3.8 1.9 2.6 0.8 0.9 1.1-1.5 2 2.3 1.1-1.8 0.8-0.2 0.6 2.1 0.6 1.5 1.2 3.5 0.7 1.5 0.7 1 1.2 1.3-0.2 1.7-1.8 1.7-0.5 3 1.6-2.5 1.8 0.5 1.7 1.6 0.9 0.8 1.2-0.9 0.7-0.2 1.9-2.1 1-0.4 2.3 0.6 2.4 2.4 3.9 2.9 1.5 1.3 1.6 1.6 1-0.3 1.4-1.6 1.7-1.1 1.6-1.8 0.1-1.1 0.6 0 3.3 1.4 2.9-1.1 1.7-1 0.3-1.4-0.7-2.3 0.8-1.9-0.3-2 0.9-2.2 0.3-0.6-1.3 1-0.9 1.2-3.2 0.2-1.2-4.7-1.2 0-1.3-2.2-1.2-0.2-0.7-2.3-2.1-2.8-1.3-1.1-1.3-1.7 0.9 0.6 1.6-0.4 1-1.7 1.3 0 1.4-1.5 0.5-0.1-1-5.3-2.9-2.1-0.5-3-1.6-1.9-2-2.6-1.7-0.4-1.2 0.7-0.8 2.5 0.3 0.2-2.2-3.2-3.7 0.5-0.8 3.1 0.1 0.3-0.8-3.3-2.9-2.4-1.2-0.5-0.8 0.1-2.6 1.6-2.7 0.5-2.5-1.5-0.8-2.8 0.7 1-1.6-0.7-2.6 1.7-0.4 2.3-0.1-0.9-1.5-3-1-1.2-1 0.4-2-1.3-0.4-0.2-1.6-1.6-2.7 0.7-1.5 2.1-1.3 1.6 0.5 2.2-1 1.5-1.6 1-0.3 2.9 0.4 1.1-0.2 2.8 0.3 1 0.5z" id="RS" name="Serbia"/>
  <path d="M674.8 427.7l-1.5 3-0.8 2.9-1.6 1.7 0.1 2.5-4.3 1.1-0.6-0.2-2.2-2.2-1.4-0.9-4.6 0.7-2.5-0.6-2.7-0.1-1.8 0.4-1.6 3.5-5 2.5-3.5-1.4-0.7 0.2-1 1.5-2.4 0.6-4.3 0.4-1.4 0.7-0.4 1 0.5 1.3-0.6 1-7 0.4-4.7-0.1-1.6-0.7-4.2-2.7-2.1-0.3-2.3-2.9-1.6-2.9-0.1-0.8 0.9-2.4 1.1-2.8 1.4-1.2 3.6 0.5 1.7-0.2 1.5-0.7 2.1-1.9 1.6-0.8 0.7-3 2.3-1.2 0.6-0.8 2-1.5 2.8-0.3 1.3 0.2 0.5 1.5 2.2 0 1-1.7 2.2-1.3 3 3 1.4 0.4 0.6 2.7 1.4-0.4 1.7 0.6 1.1-2.1 2.3-1 3-0.1 2.4 1 1.8 0.1 1.4-1.5 3.2-0.2 3.6 0.3 3.1 1 1 0.7 0.8 1.4 5.7 1.9 0.9 0.2z" id="SK" name="Slovakia"/>
  <path d="M605.2 467.1l-2.5-0.6-0.9 0.8 0 1.7-2 0-0.7 1-4.4 1.7-0.4 1.4 0.9 0.9 0.2 2.2-0.4 1.1-2.1 0.6-2.1 1 1 1.1-0.7 0.7 0.8 2.3-1.2 0.4-1.6-0.2-2-0.7-1.3 0.5-1.5-0.7-2.6-2.1-1.2 2.2-0.6 0.3-3.6 0.1-1.1-0.5-1.4 1.3-3.3-0.8-0.5-0.6 1.7-1.1 1.5-0.1-0.2-1.3-1.5-1.3-1.9-1.1 0.4-2-1.3-0.2-0.3-1 1.6-2.1-2.3-0.7-0.7-1.4 3.3-2.3 0.2-0.9 5 0.9 5 0.7 3-1.2 1-1.3 1.9-0.7 2.6-0.2 2.8 0.2 2.3-1.1 1.6-0.2 2.4 0.5 0.1-1.9 1.3-0.9 2.4 0.1 1.4 3.3 1.9 2.2z" id="SI" name="Slovenia"/>
  <path d="M591.1 319.4l-1.5-0.3-0.3-3.8 2-4.6 1-0.3 2.7-6.5 0.5 2-1.5 3.2-0.3 2.2-0.6 0.5-2 7.6z m26.2-22.7l-1.3 1.4-1.4 0.5 0.1 3.3 1.5 1.2-1.3 0.5-0.7 1.8-1.8 0.6-1.5 1.6-0.3 1.6-2.1 0.9 1.2-2.4-0.9-0.7-1.4-2.1 0.4-0.9-0.6-3.2 2.7-2.9 1.3-1.1 3.3-1 1.3 0 1.5 0.9z m36.8-113l-2.7 0.3-2.2-0.6-1 0.3-3.8 0.3-1.1 0.7-2.1-0.7-2-1.2-2 1.1-1.6-1-1 1.9 0.1 1.8-1.8-0.2 0.3 1.1-2 1.5-3.2 0.2 0.7 1.5-0.9 0.7 1 1.7-1.3 1.5-2.1 1.9-0.5 1 1.7 1.1 1.6 2.5 1.6 1.1-0.4 1.2-2.1 1.1-2.2 1.7-2 4.3-3.1 1.3-2.4 1.6-3 0.7-2.4 2.2-1.8-0.8-1.5 0.5-1 1.8-1.9 1.5-2.4-0.2 0.2 0.8-2.3 0.3-1 4-2.2 0.6-0.7 0.8-0.9-0.6-2.1 0.1 1.6 2.8-1.7 1.8-1.2 0-1.5 0.7-1.9-0.8-0.2 1.2 0.8 1.3 1.3 1-0.1 1.3-0.9 4.3 0.7 1.8-2.1 1.2-0.8 1.1 0.6 1.7-0.1 1.1 0.7 1.9 0.8 4.2 1.1 2-0.1 1.6 1.3 0.9 2.1-0.1 1.4 1.6 3.1-0.8 0.8 1.1 2.9 2.2 1.7 0.3 1.9 1.2 0 1.5 2.9 1 1.9 2 0.8 1.6-0.1 1-2.6 1.5-1.3 1.3-3.8 2.1-0.6-0.1-2.1 1 2 0.6 1.4-0.7 2.6-0.6 1.4 1.2-2.2 0.5-0.3 1.6-0.8 1-2 0.7-2.8 1.5-4 1.4-1.1 1.2-2.6 1-1.3 0.8-3.8 0-3.7-0.1 1 0.9 0.9-0.2 3.6 0.4 1.7 1.3-3 0.9 1.7 3.2-0.7 0.8 0.4 3.5-1.1 0.1-0.3 1.4 0.6 2.5 1 2.1-0.1 1-1.5 2.4 0.9 2.9-1.5 5.3-1.9 3.1-1.3 4.1-1.8 1.4-2.4-0.9-3.4 0.5-3.2-0.3-3 0.2-0.8 0.4 0.7 1.4-2.3-0.2-1.7 1.1-2 2.1 0 1.5 1.9 3-1.7 2-1.1 0-3.2-0.5-5.5 1.2-5.1-1 0.5-1 0.2-3.1-0.6-1.7-1.3-1.1-3.1-3.8-1.2-2.3 2.4 0.9 1-0.5-1.8-2.6 2.2-0.1 0.7-1-0.6-1.5-1.9-0.6-1.9-2.4-1.8-1.2-3.5-4.7-1.3-3.2-1.1 0.3-1.2-3.7-1.7-0.6-0.6-3.7-1.8-0.4-1.3-1.7-0.4-3.2-1.2-0.6-0.8-1.4-0.8-3-0.3-2.7-0.9-1.8 0.5-1.2 1.1-0.2 1.1 0.8 1 1.8 1.9-0.2 0.7-1.4 0.6-3.9-1.6-4.4 1.5-1.5 0.9-2.4 2.6-0.7 1.3-0.8 1.9-2 0.1-2.8 0.6-2.1-0.5-1.4-3.1-4.9-0.3-1.6 1.8-0.6 2.4 0 1.3-2.5 0.4-1.9-3.4-2.7-1.2-0.4-3.8-2.1 0.9-6.4 0-1.6-2.5-4.4 0.1-1.8-0.6-2.8 1.1-1.1-2.7-4.1 2-2.8-0.5-1.5 1.2-1 3.5-3.8 3.3-1.5 3.3-0.4 7.1 0.9 1.7-2.2-0.1-1.2-1.1-2.9-4.7-1.6 4.4-5 3.3-5 0.1-4.7 0.6-2.7-1.4-3.9 3.8-0.4 2.4-0.5 3.3-1.5-1-2.5 1.3-0.9 3-2.9 3.3-2.9 1.5-1 0.2-1.4-1-1.3-2.7-2.3 0.5-1.1 2.7-0.6 1.1-1.1 1.5-3.5 3.7-1.9 1.5-0.9 6.3 1.8 2.1-3.1-0.8-3.6 0-0.8 2.1-0.5 4.1 0.9 2.9 0.1 8.6 1.7 1 0.1 2.5-1.6-2.9-0.9 1.6-0.9 1.4-1.9-0.1-2-2.6-1.6 5.1-0.2 2.9 0.8 0.4 0.9 2.9 1.1 4.8 2.3 4.2 1.8 8.3 1.7 3.5 1.8 1.2 1.6 1.4 0.1 1.9 1.5 1.8 0.9-1.1 1 0.4 2.4 0.7 1.4-0.3 1.9 2.8 0.4 0.6 1.3-1 0.8-0.1 1.1 0.8 1.6 3.3 2.6 0.6 0.9-0.7 1.4 0.1 1.8-1.5 1.3 0 1.3 1.3 2.6 1.8 0.6 1.9 2.2 1.6 2.5z" id="SE" name="Sweden"/>
  <path d="M733.4 565.7l-2.9 0.5-0.1-1.5 2.2-0.6 0.8 1.6z m194.5-21.5l4.3 1.3 1.1-1 3.6 0.1 3.4 0.8 0.9-1.9 1.4-0.4 1.4 0.3 0.6 1.1 1.2 0.4 3.5 2.5 1.1 1.7 1.9 0.2 1.3 1.2 1.3 1.6 1.7 1.2 1.7 3.3-0.2 2.3-1 1.4 0.8 1.9 1.9 3-0.5 0.6 1.8 0.9 2.9 0.9 3.5-0.4 1.6 0.7 2.3 1.7 3.2 2.8 0.8 0.9-3.3-1.9-1.4 1.6-0.1 3.8-0.6 0.4-2.8-0.1-1.2 0.4 1.2 2.5 1.4 1.2 0 2.3 2.1 2.5 0.2 2.1 0.9 2.2 0.3 2.2 0.5 0.7 1.4 0.3-0.6 3.8-0.6 1.2-0.4 2 1.7 0.6 3.2 2 0.1 1.3 0.6 1.5 0.3 2 3.2 2.3 0 2.3-2.1-0.5-3.7 3.1-1.2-1.2-0.3-2.4-1.5-1.5-1.3-0.2-2.1 1.4-4.2-0.3-2.9-1.1-2.9-0.8-1.9 0.6-2.2-0.7-1.5 1.9-2 1.9-1.2 0.3-1.6-2.6-1.3-0.2-1.2 1.3-2.2 0.8-4.6 1-3.2 0.3-4.1-0.6-3.2 0.2-3.1 1.4-5.2 2.8-4.1 1.4-4.2 0.9-7.6-0.2-1.1-0.3-3.5-2.3-3.4-0.6-3.4 1.6-2.3 0.8-3.5 1.6-4.8-0.1-1.9-1.7-3.7-0.7-0.6 1.6-0.3 3.8 1.8 3.1-3.3 1.4 0 2.6-1.8 1.1-0.8 1.6-2.2-1.2-1-0.1 0.7-1.3-2.5-4.9 0.7-1.5 3.5-3.9-0.4-2.4-2-1.6-2.9 2.1-1.7 0.8-0.3 1.2-1.1 0.8-1.8 0.4-2.9-1-3.2-1.4-1.9-1.1-1.4-0.3-1.3 0.5-3.5 2.8-3.1 4.1-0.8 0.8-3.2 1.7-2.2 0.6-1-0.1-4.4 0.8-2.2 0.1-1.6 0.9-3.5-1-2.2-1.3-1.4-1.3-2.3-2.9-1.6-1.3-3.3-1.2-5.8-3-5.3-0.7-4-0.3-0.7 1.1 0.1 4.2-0.5 1.2-0.1 2.2-1.1 1.1-2.1-1-1.9 0.9-3.7 1.3-1.2 0.1-4.6-1.6-2.9-2.1-0.6-2-1.3-2.7-1.8 0.3-2.3-0.4-3.2-1.6-2.4-0.1-1.2 1.9-1 0.7-1.3-0.4 0.8-1.3-3.7 0.2-1.8 1-1.5-0.1-1-1 2-0.6 3.9-0.4 0.9-0.4 0.9-1.3 1.7-1.2-1.2-0.5-6 0.3-4.2-0.2-1 0.7-0.4-1.6 3.6-1.4-0.3-1.3-4.2-2.2-0.3-1.6-2-3.1 1.9-0.5 0.1-2.5-0.4-1.5-3.9-1.3-0.8 0.1-1.1-1.3-1.7-0.9-1.2 0.7-3.3-1.4-0.6-0.6 0.5-1.4 1-1.1-0.9-1.9-0.1-1 1.8-0.1 1 1.1 0.3 2.2 3.6 0.7 2.9-0.6-2.5-1.1-1.1-1.2-1.2-2.3 1.8-1.1 1.2-1.7-2.7-1.2 0.2-2.4-2.5-2.7 0.3-0.8 2.3-2.8-1.2-0.7-4.3 0.7-1.6 0.6-3.1 0.2-0.3-1.6 0.6-1.3-0.5-3.4 0.2-1.8 1.7-0.6 1.7-2.7 3-3.1 3.5 0 1.3-0.9 2.1 0 0.8 1.2 1.9 0.9 3.2-0.1 1.4-0.9-1.6-1.5 1.7-0.5 1.5 0.4-0.1 1.8 4.1-0.5 4.4 0.4 1.4-0.2 3.4 0 0.5-0.5-3.6-1.7 2-1.5 6.8-1.2 3.7-0.8-5.7-0.8-1.4-0.6-2-1.4-1-1.1 0.3-2.6 0.6-0.7 2.2-0.1 7.7 1.2 5.3-0.8 6.1 1.8 5.6-0.4 1.1-0.7 1.1-2.6 7.4-4.2 2.4-2.1 2.8-1.2 5-1.4 4-1.7 1.2-0.2 10.4 0.8 7 0.1 3-1.6 2 0.5-0.1 2.1 2.6 2.6 3.5 1.4 4.4-1.2 1.8 0.5 2.2 4 1.5 1.4 1.8 0.9 1.3 0.2 1.5-1.4 1.7-0.1 2.9 1.3 1.2 1.4 4.8 1.1 4.3 0.6 2 1.2 6.2 1.2 2.2-0.2 3.6-1.3 7-1.3 5.2 1.9 2.5 0.1 1.7 0.5 1.7-0.3 5-2.3 1.4-1.2 1.7-0.4 5.2-3.3 0.9-1.4z m-171.9-7.1l-0.1 1.8 1 2 2.3 2.7 2 1.4 8.1 3.3 1.4 0.3-0.9 3.5-2.1 0.5-6.4-1.5-1.6-0.1-2.9 1.4-2.3-0.4-3.1 0.6-0.6 2.1-2 2.4-3.3 1.9-2.5 1-3.5 3.7-1.5 2.2-1.5 0.7 0.5-2-0.3-1.7 2.3-2 3.3-1.6 0.7-1.3-5.4 0.3-3.3 0-1-1.8 0.8-0.4 2.5-3.2-0.5-4.4 3.4-2.5-0.9-3.1-2.3-1.5-1.2-0.3 0.3-1.4 1.9-0.3 1-2.2 3.4-0.4 1.5-1.1 3.5-0.3 3.4 2.5 1.5-0.6 1.8 0 0.9-0.4 1.7 0.2z" id="TR" name="Turkey"/>
  <path d="M796.7 471.6l0 0.6-3.9-0.8-0.9-0.9 4.8 1.1z m-26.4 14.6l-1.9-1.8-2.2-0.7-2.2 0.2-2.2 1.3-1.6 0.5-0.9-0.3-0.6 1.2-4-0.9-1.8-0.9-1.5-1.6 1.1-0.7 2-0.2 0.4-1-0.5-1.4 2.5-2.9 0-1.3 2.3-1.7 0.4-2-1-1.7-0.5-2.1 2.5-1.6 2.1 1 1.9 0.2 2.1 0.8 1.6-0.6 1.2 1.3 2.9-0.4 0.6-0.7-2.9-1.7-0.2-2.9-1-1.6-2.1-0.8-2-1.3-0.9-1.9 0-2.4-2.9-2-2.3-1.2-0.6-1.2 0.6-3.1-0.6-2.3-1.4-1.4-1.4 0.7-1.4-1-1.4-1.9-5.6-0.6-0.6-1.2-2.5-0.3-3.6-2.4-3.5-1-1.6 1-0.8-0.3-1.2 1-4-0.1-0.7-0.2-2.3 1.4-0.2 0.6-3.7 0.8-0.2 1.4-1.1 1.9-8.4 1.2-3.4 1.3-1 1.2-2.1 0.5-4.3-3.3-1.2-0.3-3.6 0.7-6.9-1.4-2.7 0.1-2.7-1.5-0.7 0-0.9 1.2-2.1 0.9-0.7-1.7-0.9-0.7-2.3-0.4-0.9-1.1-2.2-0.8-1.4-2.3-1.5 0-0.1-2.5 1.6-1.7 0.8-2.9 1.5-3 3.3 0.7 0.4-0.9-1.9-1.4 0.1-1.8-1.5-3.8 0.6-1 3.4-4.4 2.4-2.7 4.8-4.6 3-0.5 1.2-1.8-0.1-1.3-1.8-2.6 1.2-1.3-1.4-1-1.9-2.8-2.7-2.8 0-1.3-1.2-1.8-0.1-1.4 1.1-0.5 1.9 0.3 1.1 0.5 1.9-1.2 1.6-1.6 0.8-1.4 5.9-0.5 2.3-0.5 2.4-0.1 7.8 0.4 6.5 1.5 6.1 0.9 2.3 0 1.8 2.1 1 0.3 3-0.1 1.1 0.4 0.8 1.4 1.2-1.7 1.9 0.5 1.9-0.7 5.1 1 0.8 1.3 1 0.3 0.6-1.1 3.8-1.6 2.5 3 0.6 0.5 2.3-0.8 7.1-0.6 2 1.1 0.5 1.2 2.7 0.9 0.8-1.4-1.8-3.6 1-3.3 0.8-1.2 2.2-2.3 1.1-0.5 1.7 0.4 1.4-0.8 5 0.1 2.6 0.8 1.7-0.1 1.8-0.9 0.5-2.4 1.6-0.6 3.7 0.9 1-0.1 2.7-1.2 1.6-0.2 2 0.3 3.4-0.2 2.5 1.4 1.4 1.4 1.7 2.7 4 3-0.1 1-2.9 0.5 1.3 1.9 0.5 2 1.2 1.7-0.4 1 3.1 0.1 2.9 1 4.1-0.5 1.5 2.2 1.9 0.2 0.2 0.9 1.4 2.8 0.9 1.1-0.2 1.8 0.5 1 1.9 1.6 0.7 1 1.1 0.4 2.3-1.4 2.8 0.4 2.7 2 2.3 0 1.7 1.1 1.4-1.3 4.3-0.9 2.3-1 1 0.1 2.3 1.8 0.5 1.2 1.5 1.6 4.7 2.9 1.3-0.6 0.9-1.5 2.6 1.4 2.4 0.2 3.6 1.9 1.4 0.1 1.6-0.6 2 1.8 1.9 0.2 4.4 2.3 2.9-0.3 1 0.8-0.1 1.7 1 0.9-0.1 2.6-1.7 2.1-2.3 0.8 1.1 1.5 3.1 0.9-0.9 0.9-1.4-0.2-0.8 1-0.3 2.3 2.5 0.7 1.2 2.8 0 1.1 1.2 0.3-1.3 4.7-0.1 1.8-4.2 0.2-6-0.3-0.9 0.2-0.9 1.9-2.3 1.4-1.7 0.2-0.8 0.8 0 2.3-0.4 1.3 1.1 0.7-0.7 1.6 0.5 1.3-0.5 0.1-4.3-0.2-3.4 0.3-2.1 2.4-1.5 0-3.2 1.5-1.4 1.7-1.4-0.8-3.1 0.5-1.7 1.1-3.1-0.1-2.3 0.6-4.6 3.8-1.3 0.1-1-1-1.6 2.6-2.4 1.2 0.6 3.1 2.8 4.5 3.6 3.9 1.7 1.4 2.4 0.7 3.1-1.4 2.4 0.4 1.7-1.2 1.5-0.1 3.7 1-1.1 2.5-0.3 2.6-1.9 0.6-2.2-0.1-2.2 0.4-2.7-1.5-2.5 0-1.1 1.9-2.3 1.3-0.6 1.4-2.6-0.3-2.1 0.2-2.8 1.4-1.9 2.8-2.3 1.8-1.9 0.5-2-0.1-1.3-0.6-2.9-1.8 0.7-2 0.5-3.5-1.2-2.9-2.3-1.4-1.6 0.2-0.9-0.3-3.7-2.4-1.9-0.2-1.9 0.5-1.5-1.2 3.5-2.9 3.5-2.4 1.7-0.2 2.1-1.2 2.2-1.6-1.3-2.3-1.9 0.6-2.2-1.1-0.9-0.8-3.1 0.8-1.8-0.1-3.8 0.8-1.9-0.8-4-2-2.6-0.3 0-1 1.8-0.3 0.1-1-3.8-0.6-0.1-1.3 2 0.5 3.2 0.2 2.9 0.5 2.1-1.8-2.4 0.5-2.9-0.5-2.1-1.8-2.2 1.2-3.2-0.5-2.4 0.8-2.3-0.2-4.1 1.1-0.4 2.9-2 4-3.1 3.7-4.6 2.1-1.7-0.4-0.9 1.1 0.2 1.3 1 0.9 1.1 3.1-0.1 1.3z" id="UA" name="Ukraine"/>
  <path d="M674 532.8l-2.1 0.4-1.5 1.9-1.6-1.2-1 0.1-3.4 1.5-0.2 2.6-0.5 0.8-1.7-0.3-0.1-2.2-1.4-3.2-1.9-1.3-1.4-0.5-2-2.9-0.5-0.4 0.2-1.3-0.9-1.5 2-0.4 0.2-0.7 1.6-0.4 1.5-0.5 0-1.4 1.7-1.3 0.4-1-0.6-1.6 1.7-0.9 1.1 1.3 2.8 1.3 2.3 2.1 0.2 0.7 2.2 1.2 0 1.3 4.7 1.2-0.2 1.2-1.2 3.2-1 0.9 0.6 1.3z" id="XK" name="Kosovo"/>
  <path d="M452.2 392.5l-0.6 1.2-3.2 1.5-3.9-1.1-1.2 0.6-1.2-0.7-0.3-1.3 2.8-0.4 3.5 0.7 1.5-0.6 1.2 0.5 1.4-0.4z m-3.4-5.3l1.5 1.4-1.5 0.3-1.6-1 1.6-0.7z m18.1-8.5l-3-0.4-0.9-0.7 2.4-1.7 3.2-1.5 1.7 0.4 0.5 0.9-1.1 1.1-2.8 1.9z m-7.6-11.5l-1.1 1.1-0.6-1.4 1.7-1.4 0 1.7z m-7.1 25.3l-2.6-0.8-2.2 0.5-2.8-0.7-1.7-1.3 1.2-0.7 2.3-0.1 4 0.7 1.2-0.9-0.6-1-2.3-2.1 1.6-2.7 1.4-1 3.2-3.8 0.9-2 1.2-5.5 1-2 1.4 0.5 2-0.8 3.4-2 1-1.7 1-0.9 4-1.6 2.1-0.4 8.9-0.5 1.8 1.7 2.7 0.6 0.1 4.3-0.7 1.7-1.1 3.8-3.1-0.1-0.6 1.6 0.7 1 2.6 0.3 0.8 1-0.6 2.6-2.6 1.6-0.3 0.9 1 0.9-0.7 1-4.5 1.3-2.3-0.8-1.8 0.7-0.7 1.1 3.1 4.1 0 1.2-1.3 2.8 0.7 1.2-2.2 1.6-0.5 0.8 1.9 1.2-0.6 2.4-1.2-0.1-2.4-0.3-0.7-1.1 1.1-1.3 1-2.9-2.6-1.1-1.7-1.3-1.9 0.4-2.6-1.4-0.5-1.6-2.5 0.8-1.1-1.3-1.5 1-1.5-0.8-1.4 0.7 0.2 0.9-2.1-0.3z m18.1-15.6l0.9-0.9-0.5-1.9-2.1-0.3-0.5-0.8 0.4-2.5-2.8-0.4-0.4-2.5-1.5 0.3-2.3 1.5 0.6 1.3 1.6 1.6 0 0.9-2.1 0.7 0.1 2.6-0.2 1.6 5.4 1.4 3.4-2.6z" id="NL" name="Netherlands"/>
  <path d="M 420.4 584.7 L 420 585.7 L 418 585.3 L 418 583.8 L 419.2 582.2 L 421.9 581.5 L 422.7 582.8 L 420.4 584.7 L 420.4 584.7 Z M 442.1 571.1 L 443.3 571.6 L 444.6 571.1 L 446 571.5 L 446.2 572.5 L 444 576 L 443.4 577.4 L 441.3 578.7 L 437.3 577 L 437 575.4 L 435.6 574.7 L 433.9 576 L 432.5 575 L 432.2 573.8 L 437.5 570.1 L 439 569.2 L 442.2 568.3 L 442.7 569.5 L 442.1 571.1 L 442.1 571.1 Z M 456.8 570.3 L 456.5 570.5 L 452.6 568.6 L 451 568.2 L 451.1 566.8 L 453.7 566.6 L 455.8 567.3 L 457 569.1 L 456.8 570.3 L 456.8 570.3 Z M 379.4 514.8 L 379.9 516.1 L 384.2 517.4 L 383.9 520.6 L 385.7 520.2 L 390.1 521.9 L 392.3 522.1 L 394.5 524.2 L 398.1 523.8 L 401.3 525.9 L 404.4 525.5 L 405.1 525.9 L 409.428 525.528 L 410.6 523.5 L 414.6 524.6 L 417.1 525.6 L 418.8 525.9 L 419.9 527.4 L 419.9 529.5 L 420.6 529.9 L 423.4 528.8 L 426.2 530 L 427.5 531.2 L 429.6 530.1 L 434.3 531.3 L 435.5 530.5 L 439.3 529.4 L 442.4 530 L 443.6 532.2 L 441.8 532.7 L 441.6 534.1 L 442.8 535.4 L 442.9 537.5 L 439.9 540.3 L 431.2 545 L 428.3 547.7 L 421.7 549.2 L 417.2 550.7 L 415 551.2 L 410.9 555 L 412 555.3 L 413.2 556.5 L 412.8 557.1 L 410.3 558.2 L 409.4 558.2 L 406.5 562.8 L 403.9 566.1 L 402.4 567.6 L 400.9 569.7 L 397.7 575.3 L 397.6 576.9 L 399.2 582.4 L 401.4 585.1 L 403.8 586.2 L 404.4 587.2 L 403.6 588.2 L 401.2 589.9 L 396.9 592.2 L 395.1 594.1 L 394.8 595.9 L 393.5 596.7 L 393 599.2 L 391.2 603.6 L 392.5 604.8 L 391.2 605.6 L 384.7 605.9 L 380.6 608.7 L 378.6 611.1 L 376.7 615.6 L 374.5 618.2 L 373.5 618.7 L 372 617.5 L 370.1 617.4 L 368.2 617.7 L 367.2 618.7 L 365.7 619.2 L 364.2 618.7 L 359.6 618.5 L 357.3 619.3 L 355.4 618.8 L 352.2 618.5 L 345.2 619.1 L 341.2 622.5 L 337.8 622.5 L 334.7 623.7 L 332.6 626.7 L 332.1 628.3 L 331.1 628 L 330.8 629.2 L 328.7 630 L 326.3 629 L 324.3 627.5 L 323.3 627.4 L 321.7 625.2 L 320.5 622.1 L 320.5 621 L 319 620.4 L 318.7 619 L 318.9 617.4 L 317.7 615.4 L 312.7 611.7 L 309 611.4 L 306 611.9 L 304.9 605.5 L 305.7 603.3 L 309.2 599 L 311.3 598.4 L 312 596 L 310.3 596.2 L 307.3 591.9 L 308.2 587.9 L 311.4 584.9 L 312 582.5 L 311.5 581.7 L 309.8 581.3 L 308.2 578.1 L 307.9 576.2 L 306.5 575 L 305.4 573.1 L 306.5 572.8 L 310.8 572.8 L 311.8 572.3 L 313.5 568.8 L 313.5 566.9 L 312.1 565.6 L 312.3 564.6 L 315 562.5 L 314.6 561.4 L 315 557.6 L 314.6 554.1 L 313.8 552.1 L 315.8 550.5 L 316.9 548.9 L 318.5 547.5 L 320.6 546.4 L 323.1 543.9 L 322.8 542.8 L 320.9 541.9 L 319 541.7 L 318.9 538.6 L 318.2 537.5 L 313 537.4 L 311.5 536.9 L 310.7 538.3 L 308.2 539.2 L 306.8 539.2 L 304.6 538.4 L 301.7 538.5 L 298.7 539.6 L 297.8 538.3 L 299.1 536.4 L 298.1 534.6 L 294 535.6 L 292.1 536.5 L 290.9 537.6 L 289.6 537.5 L 289.6 535 L 292.2 532.4 L 290.6 532.2 L 291.8 530.3 L 290.8 529.3 L 290.9 526.7 L 288.6 527.6 L 288.1 526.4 L 289.5 524.2 L 288.1 524 L 285.8 521.5 L 286.6 518.4 L 288.6 517.4 L 290.5 515.9 L 293.1 516.2 L 294.8 515.9 L 298.4 514.3 L 298 512.8 L 298.4 512.1 L 301.6 510.4 L 303.6 510.2 L 305.5 509.3 L 306.8 509.8 L 307.9 509.7 L 309.2 510.3 L 310.9 511.9 L 313.4 512.5 L 315.4 512 L 319 511.9 L 320.7 512.1 L 323.9 511.8 L 325.7 511.9 L 328.6 511.1 L 330.9 512.1 L 335.3 512.5 L 337.9 513.3 L 345.1 514.7 L 347.8 514.7 L 351.5 513.9 L 353.1 513.4 L 354.6 513.7 L 356.7 513.1 L 359 514.1 L 363.7 515.4 L 365.8 514.1 L 369.2 514.7 L 372.5 516 L 374.3 516.1 L 376.9 515.8 L 379.4 514.8 L 379.4 514.8 Z" id="ES" name="Spain" style="stroke: url(&quot;#gradient-0&quot;);"/>
  <path d="M521.2 524.1l-0.3 2.3 1 1.7 0.6 6.5-1.8 3.2 0.1 3-1.6 4.3-0.8 1.1-3.8-2-1.2-1.1 1-1.8-2.2-0.9 0.4-1.7-0.2-0.9-1.6-0.5 1-1.3 0-0.8-1.5-1-0.3-0.9 1.3-1.1-0.6-0.9 0.1-1.3 0.9-1.9 1.2-0.9 2.8-0.8 1.2-1.1 1.9 0.6 0.6-1.2-0.2-2.7 0.3-1.1 1.3 0.5 0.4 2.7z m-133.9-47.9l-0.4 1.4-1.9-2.4 1-0.5 1.3 1.5z m84.4-55.6l2.1 1.2 1.4 0 2-0.6 1.3 0.7 1.4 0.1 3.5 4.3 1.8-0.7 1.4 0.4 0.3 0.9 2.1 0.1 3-0.6 2 1.4 4.8 0.8 1.6 0.6 0.1 1.3-3.5 3.8-1.4 5.5-1 1.8-0.3 1.5 0.2 2.4-0.6 2 0 1.5 1.1 1.3-1.5 0.7-0.8 1.4-2.7 0.3-0.8-0.8-1.1 0-1.8 1.4 1.3 1.1-0.6 0.9-3.8 4-2.1 0.9-0.5 2.9-3 2.2-1.1 2.9 0.8 0.7-0.3 1.5-1.5 1 0 1 1.4 0.1 2.3-1.6-0.5-1.3 2.3-1.5 1.9-0.1 2.2 0.3 0.8 2.2-0.5 1.7 2.3 2.3 0.9 1.4-2.6 1.7 0.1 1.6 0.9 0.6 1.7 2.6 1.8 1.6-0.8 2.5-1.2 0.3-1.7 1.3-1.9-0.2-0.8 0.4 1.5 3.1 3.2 1.4 0.5 1.7-0.8 0.7-1.4 2.5 0.7 1.3 0.1 1.4 0.9 0.9 5.1 2.4 3.3-0.6 0.3 2-2.1 2.6 0.2 1.5-0.6 0.3-0.8 0.3-2.4 1.1-3.9 3.4-1.8 1-0.7 1.8-2 1.4-2.4 0.5-2.3 1-1.1-0.4-2.8 0-1.7-1.2-3.4-0.8-1.1-1.8-2.5-0.1-0.8-1.5-1.9 0.3-1.5 0.7-2-0.1-5.9-1.8-1.4-1.4-1.7 0.5-1.6 1.6-6.5 4.1-2.6 4.3-0.1 1.2 0.7 3.9 1.6 2.5-3.1-0.6-3.8 1.1-1.2 0.8-4.7-1.2-2.1 1.1-1.3-1.2-2.8-1.2 0-1.5-2.6-0.6-0.9 0.7-1.1-1.5-1.7-0.3-2.5-1-4-1.1-0.8 2.4-4.7 0-0.7-0.4-3.1 0.4-3.2-2.1-3.6 0.4-2.2-2.1-2.2-0.2-4.4-1.7-1.8 0.4 0.3-3.2-4.3-1.3-0.5-1.3 2-0.5 1.9-1.9 1.7-7.1 1.3-8.3 1-1.6 1.2-0.4-1-1.2-1.1 1.5 0.7-7.6 0.5-2.8 0.9-3 3.1 2.4 0.8 1 0.9 3.4 0.6 0.1-1.1-4.6-1.8-2.3-3.6-2.3-0.5-1.3 1.8-0.6-0.5-1.8-0.5-5.9-3-0.6-4.8-2.6-1.7-2.6-1.6-1.9-0.4-1.7 0.9-1.8-0.8-1.1-1.4-0.8 1.1-1.6-3-0.2-1.8-0.5-0.3-1.1 1.3-1.4-1.6-0.8-2.6 0.2-0.2-1.7-2.2 0.3-1.2-0.3-1.1-1.1-1.3 0.2-2.2-0.4-0.8-0.7-4.8-1.3-2-0.1-1.9 0.6-1.1-0.3-1.3-2.2-3.1-1.1 0.6-0.7 3.1-0.6 0.6-0.7-2.2-0.9-0.2-1.2 1.6 0.3 0.1-1.2-4 0.1-0.4-1.3 0.5-1.4 2.3-1.2 5.8-1.4 2.5 0.2 1.7-0.2 3-1.6 2.9-0.4 2.7 0.8 2.5 2.8 1.2 1 3.1-1.7 4.4 0.1 0.9 0.9 1.2-1.7 1 1 4.7-0.2-1.5-2.5-0.2-6-1.3-1.7-2.1-4.3 0.2-1.4 3.2 0.3 2.7-0.6 1.3 0.4 0.3 2.8 1.1 1.6 2.2 0 2.3 0.5 3 0.1 4.3 0.8 1.8-0.5 3.5-2-1.8-0.7-0.2-0.7 0.9-2.2 5.2-2.5 3.7-0.7 3.8-1.3 2-1.4 1.2-1.8 0.5-1.3 0.3-6.8 1-2.2 2.9-1.6 6.4-1.1 0.9-0.5 0.9 2.2 0 1.2 2.9 2.4 3.2-1 1.6 1.8 0.5 2 4.2 1.1 0.6 2 0.9-0.3 3.6 0.4 1.6 1.1-0.4 1.6 0.7 0.7-0.7 1.4 0.5 0.6 2.3 0.3 2.2-0.3 1.3-0.6 0.5-1.4 1.9-0.6-0.8 2.7 0.6 0.6 0.4 2 1.7 0.1 3.3 1.5 2.8 2.6 3.4-0.4z" id="FR" name="France"/>
  <path d="M306 611.9l-1.2 0.2-4.5 2.5-1.3 0-2.5-1.1-4.5-0.4-1.5-0.3-1.8 0.7-1.5 0-1.1 1-0.8-0.3 1-2.1 1.6-4.1 0-2.6 0.4-2.2-0.3-2.1-0.7-1.4 1.1-3.5 0-1.8-0.9-2.3 2.8 0.3-1.7-1.4-1.5 0-2.3 0.9-1.5 0.1 0.1-1.4-0.5-1.8 2-0.6 1.6-1.7-0.3-1.6-1.2 1.1-0.6 1.4-2.8 0.7-1.5-0.5 0-1.9 0.6-1.7 0.4-2.3 0.8-2.2-0.2-1.4 1.6-1.3 1.4-1.9 4.3-8.9-0.6-1 1.7-6.6 1.2-2.3 0.6-4.3-0.2-2-0.7-2-0.7-4.3 0-1.4-0.9-1.8 0.1-1 1.4-1.7 1.2-1.1 1.9-0.9 4.1-1 1 1.8-1.3 1.9 0.9 1.3 3-1.1 2.9-0.1 2.2 0.8 1.4 0 2.5-0.9 0.8-1.4 1.5 0.5 5.2 0.1 0.7 1.1 0.1 3.1 1.9 0.2 1.9 0.9 0.3 1.1-2.5 2.5-2.1 1.1-1.6 1.4-1.1 1.6-2 1.6 0.8 2 0.4 3.5-0.4 3.8 0.4 1.1-2.7 2.1-0.2 1 1.4 1.3 0 1.9-1.7 3.5-1 0.5-4.3 0-1.1 0.3 1.1 1.9 1.4 1.2 0.3 1.9 1.6 3.2 1.7 0.4 0.5 0.8-0.6 2.4-3.2 3-0.9 4 3 4.3 1.7-0.2-0.7 2.4-2.1 0.6-3.5 4.3-0.8 2.2 1.1 6.4z" id="PT" name="Portugal"/>
  <path d="M843.2 646.3l-0.1 0-0.1 0 0.1-0.1 0.1 0.1z m0 0l0.1 0 0.1 0 0.1 0.1-0.1 0-0.1 0-0.1 0 0-0.1z m-0.4-0.3l-0.1 0 0-0.1 0.1 0 0-0.1 0.1 0.1 0 0.1-0.1 0z m3.5-0.8l0.2 0.1 0.3 0.3 0.2 0.4 0.1 0.3 0.2 0.2 0.2 0.1-0.2 0-0.3 0-0.3-0.1-0.2-0.2-0.2 0-0.7 0.1-0.6 0.1-0.1 0.1-0.1 0.1-0.3 0-0.3 0-0.1-0.1 0.2-0.1 0.1 0-0.1-0.3-0.2 0-0.2-0.1 0-0.4-0.1-0.1-0.3-0.1 0-0.2 0.1-0.1 0.2-0.1 0.1 0.1 0.1 0.1 0.2-0.1 0.1-0.1 0.1-0.1 0.1-0.1 0.2 0.2 0.2 0.1 0.1 0 0.2 0.1 0.1 0 0.3-0.1 0.2 0 0.1 0.1 0.2 0 0.1 0 0.1 0 0-0.1z m-4 1.1l0 0.2-0.3 0.1-0.3 0.3 0 0.2-0.1 0.3 0 0.3 0 0.3 0 0.3 0 0.1-0.1 0-0.1 0.1 0 0.3-0.1 0.1-0.2 0-0.4 0-0.2 0.1-0.1 0.1-0.1 0.2-0.1 0.1-0.2 0.1-0.4 0.1-0.4 0.2-0.3 0.1-0.2-0.3 0.1 0.5-0.4 0.2-0.9 0.2-0.2 0.1-0.1 0.1-0.2 0.1-0.2 0-0.9-0.1-1 0.1-0.1 0.1-0.2 0.1-0.6 0.5-0.1 0.3-0.3 0-0.3 0.1 0 0.1-0.1-0.1-0.1-0.2 0.1-0.2 0.1 0.1 0.3 0-0.1-0.4-0.4-0.1-0.2 0.2-0.1 0.1-0.2-0.1 0 0.1-0.4-0.1-0.3-0.2-0.1-0.1 0-0.2-0.1 0-0.1 0-0.1 0-0.1 0-0.1 0.1 0 0.1-0.2 0-0.1 0.2-0.2 0-0.2 0-0.1 0.1 0.1 0.2-0.2 0.1-0.5 0-0.6-0.1-0.5-0.2-0.7-0.4-0.3-0.1-0.3-0.1-0.5 0-0.3-0.1-0.2-0.2-0.6-0.4-0.1-0.1-0.1-0.4 0-0.1-0.1-0.1-0.4-0.9-0.1-0.1-0.3-0.2-0.2-0.1-0.1-0.1-0.1-0.2 0-0.2 0.1-0.2-0.3-0.4-0.1-0.2 0-0.4-0.1-0.2-0.3-0.5-0.2-0.3-0.1-0.4 0.1-0.3 0.1 0 0.3 0.1 0.4 0.5 0.3 0.1 0.2 0.1 0.6 0 0.4-0.2 0.3-0.4 0.3-0.4 0.1-0.5 0.1-0.3 0.2-0.1 0.1-0.1 0-0.1 0.1 0 0.1 0.1 0.1 0 0.2 0 0.1 0.1 0.2 0.2 0.2 0 0.1 0 0.2-0.2 0.1-0.2 0-0.2 0.4 0.1 0.2 0.4 0.1 0.2 0.1 0.2 0.2 0.1 0.4 0.1 0.3 0.1 0.2 0.2 0.2 0.1 0.1 0.2 0 0.2 0.1 0.1 0.1 0.1 0.1 0 0.4-0.1 0.1-0.2 0.1-0.2 0.1-0.1 0.1 0.1 0.1 0.1 0.2 0.1 0.2 0 0.2-0.1 0.2-0.2 0.2-0.2 0.2-0.1 0.3-0.2 0.1-0.2 0.2 0 0.3 0.1 0.3 0 0.4 0 0.1-0.1 0.1 0 0.1-0.2 0.3-0.2 0.2 0 0.2 0.1 0.1 0.1 0.2 0 0.1 0 0.2 0.2 0.2 0.2 0.2 0.1 0.3 0.1 0.1 0 0.1-0.1 0-0.1 0.1-0.2 0.3-0.3 0.1 0 0.2 0 0.3 0 0.2 0 0.1 0 0 0.2 0.1 0.2 0.1 0.1 0.2 0.2 0.2 0.2 0 0.1 0.1 0.3 0 0.2 0 0.3 0 0.4-0.1 0.3 0.1 0.2 0.1 0.1 0.2 0 0.2 0 0-0.3 0-0.4 0.1-0.1 0.1-0.1 0.1-0.1 0.1 0.1 0.1 0.4 0.1 0.2 0.1 0.1 0.3-0.1 0-0.2 0.1-0.1 0.2 0 0.1 0.1 0.2 0 0.1-0.1 0.1 0.1 0.1 0 0.3 0.2 0.2 0 0.1 0 0.3 0.2z" id="CY" name="Cyprus"/>
  <circle cx="399.9" cy="390.8" id="0"/>
  <circle cx="575.4" cy="412" id="1"/>
  <circle cx="521" cy="266.6" id="2"/>
  <g>
    <path style="fill: #fff; stroke: rgb(0, 0, 0); stroke-width: 0px;" d="M 409.724 526.027 C 408.639 527.655 408.168 529.812 408.168 532.181 C 408.168 532.817 408.474 535.057 408.097 535.434 C 407.932 535.599 408.191 536.189 408.026 536.354 C 407.483 536.897 407.66 538.347 407.107 538.9 C 406.48 539.527 406.021 540.198 405.409 540.809 C 404.801 541.418 404.72 542.772 404.136 543.355 C 403.944 543.548 404.18 545.238 404.278 545.336 C 404.606 545.664 405.48 545.194 405.692 545.407 C 406.077 545.792 405.734 547.075 406.117 547.458 C 406.276 547.617 406.187 548.546 406.187 548.801 C 406.187 550.059 406.258 551.128 406.258 552.409 C 406.258 552.645 406.107 553.743 406.258 553.894 C 406.534 554.169 406.946 554.511 407.248 554.813 C 407.484 555.049 407.154 555.851 407.39 556.086 C 407.695 556.392 408.036 556.733 408.309 557.006 C 408.889 557.586 409.081 558.131 409.512 558.562 C 409.57 558.621 410.867 558.621 410.926 558.562 C 411.445 558.043 411.855 557.563 412.341 557.076 C 412.587 556.83 413.265 557.072 413.543 556.794 C 413.872 556.464 413.126 556.305 413.048 556.228 C 412.58 555.76 411.895 555.64 411.421 555.167 C 411.149 554.895 412.245 553.353 412.341 553.257 C 413.055 552.543 414.313 552.204 415.028 551.489 C 415.319 551.198 415.972 551.394 416.231 551.135 C 416.337 551.029 416.761 551.242 416.867 551.135 C 417.409 550.593 419.083 551.183 419.625 550.64 C 419.802 550.464 420.439 550.746 420.616 550.57 C 421.266 549.919 422.895 550.27 423.586 549.579 C 424.089 549.077 425.499 549.364 425.991 548.872 C 426.418 548.445 427.164 548.335 427.618 547.882 C 427.901 547.599 428.678 547.811 428.961 547.528 C 429.552 546.938 430.227 546.192 430.942 545.477 C 431.599 544.819 432.959 544.521 433.629 543.851 C 433.972 543.508 434.888 543.724 435.256 543.355 C 436.107 542.505 437.716 542.098 438.58 541.234 C 439.377 540.437 441.044 540.397 441.904 539.536 C 442.533 538.908 443.007 538.292 443.602 537.697 C 443.803 537.496 443.526 536.555 443.46 536.424 C 443.237 535.977 443.334 535.449 443.036 535.151 C 442.669 534.784 442.128 534.668 441.763 534.302 C 441.596 534.136 442.019 533.693 442.046 533.666 C 442.321 533.391 442.233 532.843 442.541 532.534 C 442.827 532.248 443.56 532.435 443.814 532.181 C 444.011 531.984 443.643 531.444 443.602 531.403 C 443.301 531.102 443.315 530.48 443.036 530.2 C 442.814 529.978 442.518 529.966 442.329 529.776 C 442.069 529.517 441.244 529.823 440.985 529.564 C 440.772 529.351 440.441 529.575 440.136 529.422 C 438.854 528.781 437.723 529.501 437.024 530.2 C 436.706 530.519 435.999 530.448 435.68 530.766 C 435.565 530.881 433.56 531.404 433.205 531.049 C 432.5 530.345 430.279 529.776 429.032 529.776 C 428.118 529.776 427.757 529.99 427.335 530.412 C 427.308 530.439 426.725 530.439 426.698 530.412 C 426.105 529.819 425.134 529.627 424.576 529.069 C 424.293 528.786 423.586 528.927 423.303 528.644 C 423.189 528.53 422.425 528.674 422.384 528.715 C 422.092 529.007 420.018 529.532 419.484 528.998 C 419.049 528.563 420.066 527.671 419.696 527.301 C 418.934 526.539 418.684 525.368 417.928 524.613 C 417.274 523.96 415.506 524.596 414.887 523.976 C 414.57 523.659 413.652 523.802 413.331 523.481 C 413.001 523.151 411.963 523.528 411.633 523.198 C 411.265 522.83 410.717 523.478 410.572 523.623 C 409.904 524.291 409.37 525.309 409.37 526.664"/>
  </g>
</svg>